<?xml version="1.0" encoding="UTF-8" standalone="no"?>
<!DOCTYPE svg PUBLIC "-//W3C//DTD SVG 1.1//EN" "http://www.w3.org/Graphics/SVG/1.1/DTD/svg11.dtd">
<svg width="100%" height="100%" viewBox="0 0 500 500" version="1.1" xmlns="http://www.w3.org/2000/svg" xmlns:xlink="http://www.w3.org/1999/xlink" xml:space="preserve" xmlns:serif="http://www.serif.com/" style="fillRule:evenodd;clipRule:evenodd;stroke-linejoin:round;stroke-miterlimit:2;">
    <g transform="matrix(-1.79768,0,0,1.79768,699.421,-199.421)">
        <path d="M213.862,380.934L110.936,380.934L110.936,320.657L165.71,249.785L110.932,176.892L110.932,119.066L213.385,119.163L266.081,186.5L242.074,218.244L194.224,158.328L145.243,158.328L215.76,249.785L145.94,341.241L193.53,341.241L242.053,281.498L266.081,313.671L213.862,380.934ZM388.537,341.241L337.865,341.241L266.081,250.039L338.823,158.328L389.068,158.328L316.878,250.109L388.537,341.241Z" style="fill:url(#_Linear1);"/>
    </g>
    <defs>
        <linearGradient id="_Linear1" x1="0" y1="0" x2="1" y2="0" gradientUnits="userSpaceOnUse" gradientTransform="matrix(1.60348e-14,261.868,-261.868,1.60348e-14,250,119.066)"><stop offset="0" style="stopColor:rgb(85,87,254);stop-opacity:1"/><stop offset="1" style="stopColor:rgb(149,85,254);stop-opacity:1"/></linearGradient>
    </defs>
</svg>
