<svg width="45" height="35" viewBox="0 0 45 35" fill="none" xmlns="http://www.w3.org/2000/svg">
<path d="M15.1396 13.5704H9.63957V5.72816H5.9729V13.5704H0.4729V18.7986H5.9729V26.6408H9.63957V18.7986H15.1396V13.5704ZM33.4729 16.1845C36.5162 16.1845 38.9546 12.6816 38.9546 8.34224C38.9546 4.00287 36.5162 0.5 33.4729 0.5C32.8862 0.5 32.3179 0.630704 31.8046 0.865971C32.8496 2.98338 33.4546 5.54517 33.4546 8.34224C33.4546 11.1393 32.8312 13.675 31.8046 15.8185C32.3179 16.0538 32.8862 16.1845 33.4729 16.1845ZM24.3062 16.1845C27.3496 16.1845 29.7879 12.6816 29.7879 8.34224C29.7879 4.00287 27.3496 0.5 24.3062 0.5C21.2629 0.5 18.8062 4.00287 18.8062 8.34224C18.8062 12.6816 21.2629 16.1845 24.3062 16.1845ZM36.4429 21.8309C37.9646 23.7392 38.9729 26.1703 38.9729 29.2549V34.483H44.4729V29.2549C44.4729 25.2292 40.1279 22.7458 36.4429 21.8309ZM24.3062 21.4126C20.6396 21.4126 13.3062 24.0267 13.3062 29.2549V34.483H35.3062V29.2549C35.3062 24.0267 27.9729 21.4126 24.3062 21.4126Z" fill="#5557FE"/>
</svg>
