<svg width="195" height="39" viewBox="0 0 195 39" fill="none" xmlns="http://www.w3.org/2000/svg">
<path fill-rule="evenodd" clip-rule="evenodd" d="M25.1972 38.5817H39.9992V29.8523L32.1221 19.5886L40 9.03216V0.657715L25.2658 0.671762L17.6872 10.4236L21.1398 15.0208L28.0214 6.34369H35.0655L24.9242 19.5886L34.9652 32.8333H28.1212L21.1429 24.1813L17.6872 28.8406L25.1972 38.5817ZM0.0763664 32.8333H7.36374L17.6872 19.6253L7.22596 6.34369H0L10.382 19.6355L0.0763664 32.8333Z" fill="white"/>
<path d="M56.3284 27.6577V10.5952H61.5784C63.0784 10.5952 64.4182 10.9351 65.5979 11.6147C66.7854 12.2866 67.7112 13.2476 68.3752 14.4976C69.0393 15.7397 69.3713 17.1538 69.3713 18.7397V19.5249C69.3713 21.1108 69.0432 22.521 68.387 23.7554C67.7385 24.9897 66.8206 25.9468 65.6331 26.6265C64.4456 27.3062 63.1057 27.6499 61.6135 27.6577H56.3284ZM59.844 13.4429V24.8335H61.5432C62.9182 24.8335 63.969 24.3843 64.6956 23.4858C65.4221 22.5874 65.7932 21.3022 65.8088 19.6304V18.728C65.8088 16.9937 65.4495 15.6812 64.7307 14.7905C64.012 13.8921 62.9612 13.4429 61.5784 13.4429H59.844ZM82.4434 20.2632H75.6934V24.8335H83.6152V27.6577H72.1777V10.5952H83.5918V13.4429H75.6934V17.5093H82.4434V20.2632ZM94.7654 23.1812C94.7654 22.5171 94.531 22.0093 94.0623 21.6577C93.5935 21.2983 92.7498 20.9233 91.531 20.5327C90.3123 20.1343 89.3474 19.7437 88.6365 19.3608C86.699 18.314 85.7302 16.9038 85.7302 15.1304C85.7302 14.2085 85.9881 13.3882 86.5037 12.6694C87.0271 11.9429 87.7732 11.3765 88.742 10.9702C89.7185 10.564 90.8123 10.3608 92.0232 10.3608C93.242 10.3608 94.3279 10.5835 95.281 11.0288C96.2341 11.4663 96.9724 12.0874 97.4959 12.8921C98.0271 13.6968 98.2927 14.6108 98.2927 15.6343H94.7771C94.7771 14.853 94.531 14.2476 94.0388 13.8179C93.5466 13.3804 92.8552 13.1616 91.9646 13.1616C91.1052 13.1616 90.4373 13.3452 89.9607 13.7124C89.4841 14.0718 89.2459 14.5483 89.2459 15.1421C89.2459 15.6968 89.5232 16.1616 90.0779 16.5366C90.6404 16.9116 91.4646 17.2632 92.5506 17.5913C94.5506 18.1929 96.0076 18.939 96.9216 19.8296C97.8357 20.7202 98.2927 21.8296 98.2927 23.1577C98.2927 24.6343 97.7341 25.7944 96.617 26.6382C95.4998 27.4741 93.9959 27.8921 92.1052 27.8921C90.7927 27.8921 89.5974 27.6538 88.5193 27.1772C87.4412 26.6929 86.617 26.0327 86.0466 25.1968C85.4841 24.3608 85.2029 23.3921 85.2029 22.2905H88.7302C88.7302 24.1733 89.8552 25.1147 92.1052 25.1147C92.9412 25.1147 93.5935 24.9468 94.0623 24.6108C94.531 24.2671 94.7654 23.7905 94.7654 23.1812ZM104.662 27.6577H101.146V10.5952H104.662V27.6577ZM121.671 25.5015C121.038 26.2593 120.144 26.8491 118.988 27.271C117.831 27.6851 116.55 27.8921 115.144 27.8921C113.667 27.8921 112.37 27.5718 111.253 26.9312C110.144 26.2827 109.284 25.3452 108.675 24.1187C108.074 22.8921 107.765 21.4507 107.749 19.7944V18.6343C107.749 16.9312 108.034 15.4585 108.605 14.2163C109.183 12.9663 110.011 12.0132 111.089 11.3569C112.175 10.6929 113.445 10.3608 114.898 10.3608C116.921 10.3608 118.503 10.8452 119.644 11.814C120.784 12.7749 121.46 14.1772 121.671 16.021H118.249C118.093 15.0444 117.745 14.3296 117.206 13.8765C116.675 13.4233 115.941 13.1968 115.003 13.1968C113.808 13.1968 112.898 13.646 112.273 14.5444C111.648 15.4429 111.331 16.7788 111.324 18.5522V19.6421C111.324 21.4312 111.663 22.7827 112.343 23.6968C113.023 24.6108 114.019 25.0679 115.331 25.0679C116.652 25.0679 117.593 24.7866 118.156 24.2241V21.2827H114.956V18.6929H121.671V25.5015ZM138.646 27.6577H135.13L128.286 16.4312V27.6577H124.771V10.5952H128.286L135.142 21.8452V10.5952H138.646V27.6577ZM162.059 27.6577H158.544V20.3452H151.688V27.6577H148.172V10.5952H151.688V17.5093H158.544V10.5952H162.059V27.6577ZM178.295 10.5952V21.8335C178.295 23.7007 177.709 25.1772 176.537 26.2632C175.373 27.3491 173.78 27.8921 171.756 27.8921C169.764 27.8921 168.182 27.3647 167.01 26.3101C165.838 25.2554 165.241 23.8062 165.217 21.9624V10.5952H168.733V21.8569C168.733 22.9741 168.998 23.7905 169.53 24.3062C170.069 24.814 170.811 25.0679 171.756 25.0679C173.733 25.0679 174.737 24.0288 174.768 21.9507V10.5952H178.295ZM181.418 27.6577V10.5952H187.395C189.465 10.5952 191.035 10.9937 192.106 11.7905C193.176 12.5796 193.711 13.7397 193.711 15.271C193.711 16.1069 193.496 16.8452 193.066 17.4858C192.637 18.1187 192.039 18.5835 191.274 18.8804C192.149 19.0991 192.836 19.5405 193.336 20.2046C193.844 20.8687 194.098 21.6812 194.098 22.6421C194.098 24.2827 193.574 25.5249 192.527 26.3687C191.481 27.2124 189.988 27.6421 188.051 27.6577H181.418ZM184.934 20.228V24.8335H187.945C188.774 24.8335 189.418 24.6382 189.879 24.2476C190.348 23.8491 190.582 23.3022 190.582 22.6069C190.582 21.0444 189.774 20.2515 188.156 20.228H184.934ZM184.934 17.7437H187.535C189.309 17.7124 190.195 17.0054 190.195 15.6226C190.195 14.8491 189.969 14.2944 189.516 13.9585C189.07 13.6147 188.363 13.4429 187.395 13.4429H184.934V17.7437Z" fill="white"/>
</svg>
