<svg width="14" height="12" viewBox="0 0 14 12" fill="none" xmlns="http://www.w3.org/2000/svg">
<path d="M11.9031 5C11.9031 8.5 6.95981 11.5 6.95981 11.5C6.95981 11.5 2.01648 8.5 2.01648 5C2.01648 3.80653 2.53729 2.66193 3.46435 1.81802C4.3914 0.974106 5.64876 0.5 6.95981 0.5C8.27086 0.5 9.52822 0.974106 10.4553 1.81802C11.3823 2.66193 11.9031 3.80653 11.9031 5Z" stroke="#6D6D72" stroke-linecap="round" stroke-linejoin="round"/>
<path d="M6.95979 6.5C7.86983 6.5 8.60756 5.82843 8.60756 5C8.60756 4.17157 7.86983 3.5 6.95979 3.5C6.04975 3.5 5.31201 4.17157 5.31201 5C5.31201 5.82843 6.04975 6.5 6.95979 6.5Z" stroke="#6D6D72" stroke-linecap="round" stroke-linejoin="round"/>
</svg>
