<svg width="517" height="119" viewBox="0 0 517 119" fill="none" xmlns="http://www.w3.org/2000/svg">
<path d="M388.288 98V98.8378H389.126V98H388.288ZM374.582 98H373.745V98.8378H374.582V98ZM374.582 74.1229H375.42V73.2851H374.582V74.1229ZM354.279 74.1229V73.2851H353.441V74.1229H354.279ZM354.279 98V98.8378H355.117V98H354.279ZM340.495 98H339.657V98.8378H340.495V98ZM340.495 40.8205V39.9827H339.657V40.8205H340.495ZM354.279 40.8205H355.117V39.9827H354.279V40.8205ZM354.279 63.5195H353.441V64.3573H354.279V63.5195ZM374.582 63.5195V64.3573H375.42V63.5195H374.582ZM374.582 40.8205V39.9827H373.745V40.8205H374.582ZM388.288 40.8205H389.126V39.9827H388.288V40.8205ZM388.288 97.1622H374.582V98.8378H388.288V97.1622ZM375.42 98V74.1229H373.745V98H375.42ZM374.582 73.2851H354.279V74.9607H374.582V73.2851ZM353.441 74.1229V98H355.117V74.1229H353.441ZM354.279 97.1622H340.495V98.8378H354.279V97.1622ZM341.333 98V40.8205H339.657V98H341.333ZM340.495 41.6583H354.279V39.9827H340.495V41.6583ZM353.441 40.8205V63.5195H355.117V40.8205H353.441ZM354.279 64.3573H374.582V62.6817H354.279V64.3573ZM375.42 63.5195V40.8205H373.745V63.5195H375.42ZM374.582 41.6583H388.288V39.9827H374.582V41.6583ZM387.45 40.8205V98H389.126V40.8205H387.45ZM450.741 40.8205H451.579V39.9827H450.741V40.8205ZM448.031 89.2817L448.755 89.7046L448.756 89.7019L448.031 89.2817ZM405.697 78.5213H404.859L404.859 78.5318L405.697 78.5213ZM405.697 40.8205V39.9827H404.859V40.8205H405.697ZM419.559 40.8205H420.397V39.9827H419.559V40.8205ZM419.559 78.7962H418.722V78.8067L418.722 78.8172L419.559 78.7962ZM436.957 40.8205V39.9827H436.119V40.8205H436.957ZM449.903 40.8205V78.2464H451.579V40.8205H449.903ZM449.903 78.2464C449.903 82.3665 449.027 85.8947 447.307 88.8615L448.756 89.7019C450.649 86.4377 451.579 82.6089 451.579 78.2464H449.903ZM447.308 88.8588C445.59 91.797 443.127 94.041 439.893 95.5955L440.619 97.1057C444.139 95.4137 446.86 92.9452 448.755 89.7046L447.308 88.8588ZM439.893 95.5955C436.652 97.1532 432.788 97.9476 428.278 97.9476V99.6232C432.983 99.6232 437.105 98.7944 440.619 97.1057L439.893 95.5955ZM428.278 97.9476C421.459 97.9476 416.195 96.1814 412.384 92.7438L411.262 93.9881C415.462 97.7765 421.168 99.6232 428.278 99.6232V97.9476ZM412.384 92.7438C408.581 89.3134 406.61 84.6029 406.534 78.5108L404.859 78.5318C404.94 85.0066 407.054 90.1925 411.262 93.9881L412.384 92.7438ZM406.534 78.5213V40.8205H404.859V78.5213H406.534ZM405.697 41.6583H419.559V39.9827H405.697V41.6583ZM418.722 40.8205V78.7962H420.397V40.8205H418.722ZM418.722 78.8172C418.803 82.0569 419.598 84.6353 421.243 86.4058C422.901 88.1912 425.296 89.0199 428.278 89.0199V87.3443C425.604 87.3443 423.718 86.6087 422.471 85.2654C421.209 83.9073 420.473 81.7928 420.397 78.7752L418.722 78.8172ZM428.278 89.0199C431.284 89.0199 433.698 88.1887 435.37 86.3974L434.145 85.2542C432.885 86.6047 430.979 87.3443 428.278 87.3443V89.0199ZM435.37 86.3974C437.05 84.5977 437.795 81.7857 437.795 78.1678H436.119C436.119 81.6189 435.398 83.9122 434.145 85.2542L435.37 86.3974ZM437.795 78.1678V40.8205H436.119V78.1678H437.795ZM436.957 41.6583H450.741V39.9827H436.957V41.6583ZM468.228 98H467.39V98.8378H468.228V98ZM468.228 40.8205V39.9827H467.39V40.8205H468.228ZM505.536 44.8655L505.053 45.5501L505.055 45.5516L505.536 44.8655ZM503.258 68.8212L502.963 68.0371L500.503 68.9625L503.045 69.6314L503.258 68.8212ZM507.185 93.7194L507.706 94.376L507.706 94.3755L507.185 93.7194ZM491.437 98V98.8378L491.444 98.8378L491.437 98ZM482.012 73.6909V72.8531H481.175V73.6909H482.012ZM482.012 87.3967H481.175V88.2345H482.012V87.3967ZM496.778 85.708L497.319 86.3485L497.326 86.3423L496.778 85.708ZM491.673 73.6909L491.678 72.8531H491.673V73.6909ZM482.012 64.6584H481.175V65.4962H482.012V64.6584ZM489.199 64.6584V65.4962L489.206 65.4962L489.199 64.6584ZM495.482 53.0733L494.97 53.736L494.978 53.742L495.482 53.0733ZM482.012 51.4631V50.6254H481.175V51.4631H482.012ZM469.066 98V40.8205H467.39V98H469.066ZM468.228 41.6583H488.767V39.9827H468.228V41.6583ZM488.767 41.6583C496.043 41.6583 501.432 42.9954 505.053 45.5501L506.019 44.1809C501.995 41.3423 496.205 39.9827 488.767 39.9827V41.6583ZM505.055 45.5516C508.657 48.0753 510.471 51.7201 510.471 56.6077H512.147C512.147 51.2324 510.112 47.049 506.017 44.1794L505.055 45.5516ZM510.471 56.6077C510.471 59.4345 509.822 61.7954 508.564 63.7306L509.969 64.6437C511.434 62.39 512.147 59.6979 512.147 56.6077H510.471ZM508.564 63.7306C507.313 65.6559 505.463 67.0965 502.963 68.0371L503.553 69.6053C506.342 68.5561 508.498 66.9073 509.969 64.6437L508.564 63.7306ZM503.045 69.6314C505.876 70.3763 507.992 71.7481 509.459 73.7197L510.803 72.7196C509.076 70.3974 506.61 68.837 503.471 68.011L503.045 69.6314ZM509.459 73.7197C510.932 75.7003 511.689 78.1358 511.689 81.0739H513.364C513.364 77.8334 512.524 75.0326 510.803 72.7196L509.459 73.7197ZM511.689 81.0739C511.689 86.4866 509.979 90.4314 506.664 93.0633L507.706 94.3755C511.513 91.3523 513.364 86.8668 513.364 81.0739H511.689ZM506.665 93.0628C503.338 95.7001 498.305 97.1106 491.431 97.1622L491.444 98.8378C498.499 98.7847 503.964 97.3415 507.706 94.376L506.665 93.0628ZM491.437 97.1622H468.228V98.8378H491.437V97.1622ZM481.175 73.6909V87.3967H482.85V73.6909H481.175ZM482.012 88.2345H491.045V86.5589H482.012V88.2345ZM491.045 88.2345C493.647 88.2345 495.779 87.6463 497.318 86.3485L496.238 85.0675C495.107 86.0212 493.417 86.5589 491.045 86.5589V88.2345ZM497.326 86.3423C498.878 85.0032 499.619 83.143 499.619 80.8776H497.943C497.943 82.7488 497.349 84.1089 496.231 85.0736L497.326 86.3423ZM499.619 80.8776C499.619 78.3667 498.994 76.3279 497.6 74.918C496.205 73.5074 494.178 72.8669 491.678 72.8531L491.668 74.5287C493.907 74.541 495.434 75.1115 496.409 76.0963C497.384 77.082 497.943 78.6235 497.943 80.8776H499.619ZM491.673 72.8531H482.012V74.5287H491.673V72.8531ZM482.012 65.4962H489.199V63.8206H482.012V65.4962ZM489.206 65.4962C492.273 65.4695 494.666 64.916 496.177 63.6515L495.102 62.3665C494.047 63.2489 492.147 63.7949 489.192 63.8206L489.206 65.4962ZM496.177 63.6515C497.697 62.3799 498.402 60.5317 498.402 58.2571H496.726C496.726 60.1716 496.148 61.4912 495.102 62.3665L496.177 63.6515ZM498.402 58.2571C498.402 55.6939 497.658 53.6656 495.987 52.4046L494.978 53.742C496.082 54.5755 496.726 56.0031 496.726 58.2571H498.402ZM495.995 52.4106C494.385 51.1653 491.916 50.6254 488.767 50.6254V52.3009C491.797 52.3009 493.805 52.8345 494.97 53.7359L495.995 52.4106ZM488.767 50.6254H482.012V52.3009H488.767V50.6254ZM481.175 51.4631V64.6584H482.85V51.4631H481.175Z" fill="white"/>
<path d="M4.31988 97.4583V40.2788H22.7383C27.7912 40.2788 32.3336 41.4308 36.3655 43.7347C40.3974 46.0125 43.5391 49.2458 45.7907 53.4348C48.0684 57.5976 49.2204 62.2709 49.2466 67.4548V70.086C49.2466 75.3222 48.1339 80.0217 45.9085 84.1845C43.7093 88.3211 40.5938 91.5675 36.5619 93.9238C32.5562 96.2539 28.0792 97.4321 23.131 97.4583H4.31988ZM18.1042 50.9214V86.8549H22.8953C26.8487 86.8549 29.8857 85.4543 32.0064 82.6529C34.127 79.8253 35.1874 75.6363 35.1874 70.086V67.6119C35.1874 62.0876 34.127 57.9249 32.0064 55.1235C29.8857 52.3221 26.7963 50.9214 22.7383 50.9214H18.1042ZM100.625 73.2277H78.9469V86.8549H104.552V97.4583H65.1626V40.2788H104.631V50.9214H78.9469V62.9778H100.625V73.2277ZM148.508 82.2602C148.508 80.2442 147.788 78.6734 146.348 77.5476C144.934 76.4218 142.434 75.2567 138.847 74.0524C135.26 72.8481 132.328 71.683 130.05 70.5572C122.641 66.9181 118.936 61.9175 118.936 55.5555C118.936 52.3876 119.853 49.5993 121.685 47.1906C123.544 44.7558 126.162 42.8707 129.54 41.5355C132.917 40.1741 136.713 39.4934 140.929 39.4934C145.039 39.4934 148.717 40.2264 151.964 41.6926C155.236 43.1587 157.776 45.2532 159.583 47.976C161.389 50.6727 162.292 53.7621 162.292 57.2441H148.547C148.547 54.914 147.827 53.1075 146.387 51.8247C144.974 50.5418 143.049 49.9004 140.614 49.9004C138.153 49.9004 136.203 50.4502 134.763 51.5498C133.349 52.6232 132.642 53.9977 132.642 55.6733C132.642 57.1394 133.428 58.4747 134.999 59.679C136.569 60.8571 139.331 62.0876 143.285 63.3705C147.238 64.6272 150.485 65.9886 153.024 67.4548C159.203 71.0154 162.292 75.9243 162.292 82.1816C162.292 87.1822 160.407 91.1094 156.637 93.9631C152.867 96.8168 147.696 98.2437 141.125 98.2437C136.491 98.2437 132.289 97.419 128.519 95.7696C124.775 94.094 121.947 91.8163 120.036 88.9363C118.151 86.0302 117.208 82.6921 117.208 78.9221H131.032C131.032 81.9853 131.818 84.2499 133.388 85.7161C134.985 87.156 137.564 87.876 141.125 87.876C143.403 87.876 145.196 87.3917 146.505 86.423C147.84 85.4281 148.508 84.0405 148.508 82.2602ZM192.896 97.4583H179.151V40.2788H192.896V97.4583ZM258.137 90.3894C256.016 92.7457 252.914 94.6438 248.83 96.0838C244.745 97.5237 240.268 98.2437 235.399 98.2437C227.911 98.2437 221.929 95.9529 217.452 91.3712C212.975 86.7895 210.579 80.4144 210.265 72.2459L210.226 67.2977C210.226 61.6687 211.221 56.7598 213.21 52.5708C215.2 48.3557 218.041 45.1223 221.732 42.8707C225.45 40.593 229.744 39.4541 234.613 39.4541C241.735 39.4541 247.259 41.0904 251.186 44.3631C255.139 47.6095 257.443 52.4661 258.098 58.9328H244.824C244.353 55.7387 243.332 53.461 241.761 52.0996C240.19 50.7381 237.964 50.0574 235.085 50.0574C231.629 50.0574 228.958 51.5236 227.073 54.4559C225.188 57.3881 224.233 61.5771 224.206 67.0228V70.4787C224.206 76.1862 225.175 80.4798 227.112 83.3598C229.076 86.2135 232.152 87.6404 236.341 87.6404C239.928 87.6404 242.599 86.8418 244.353 85.2448V76.3694H234.77V66.905H258.137V90.3894ZM322.75 97.4583H309.044L288.78 61.8782V97.4583H274.996V40.2788H288.78L309.005 75.8589V40.2788H322.75V97.4583Z" fill="white"/>
<path d="M4.31988 97.4583H3.48208V98.2961H4.31988V97.4583ZM4.31988 40.2788V39.441H3.48208V40.2788H4.31988ZM36.3655 43.7347L35.9498 44.4621L35.9534 44.4642L36.3655 43.7347ZM45.7907 53.4348L45.0527 53.8315L45.0557 53.837L45.7907 53.4348ZM49.2466 67.4548H50.0844L50.0844 67.4505L49.2466 67.4548ZM45.9085 84.1845L45.1697 83.7895L45.1688 83.7912L45.9085 84.1845ZM36.5619 93.9238L36.9831 94.648L36.9846 94.6472L36.5619 93.9238ZM23.131 97.4583L23.131 98.2961L23.1354 98.2961L23.131 97.4583ZM18.1042 50.9214V50.0836H17.2664V50.9214H18.1042ZM18.1042 86.8549H17.2664V87.6927H18.1042V86.8549ZM32.0064 82.6529L32.6743 83.1585L32.6766 83.1556L32.0064 82.6529ZM5.15767 97.4583V40.2788H3.48208V97.4583H5.15767ZM4.31988 41.1166H22.7383V39.441H4.31988V41.1166ZM22.7383 41.1166C27.6586 41.1166 32.0556 42.2368 35.9498 44.4621L36.7812 43.0073C32.6117 40.6247 27.9238 39.441 22.7383 39.441V41.1166ZM35.9534 44.4642C39.8435 46.6618 42.874 49.778 45.0527 53.8314L46.5286 53.0382C44.2042 48.7137 40.9512 45.3631 36.7776 43.0053L35.9534 44.4642ZM45.0557 53.837C47.2607 57.8666 48.3833 62.4011 48.4088 67.459L50.0844 67.4505C50.0576 62.1407 48.8762 57.3285 46.5257 53.0326L45.0557 53.837ZM48.4088 67.4548V70.086H50.0844V67.4548H48.4088ZM48.4088 70.086C48.4088 75.1997 47.3232 79.7611 45.1697 83.7895L46.6474 84.5794C48.9446 80.2823 50.0844 75.4446 50.0844 70.086H48.4088ZM45.1688 83.7912C43.0423 87.791 40.0363 90.9229 36.1391 93.2005L36.9846 94.6472C41.1512 92.2121 44.3763 88.8512 46.6483 84.5778L45.1688 83.7912ZM36.1406 93.1996C32.2701 95.4511 27.9386 96.595 23.1265 96.6205L23.1354 98.2961C28.2198 98.2692 32.8422 97.0568 36.9831 94.648L36.1406 93.1996ZM23.131 96.6205H4.31988V98.2961H23.131V96.6205ZM17.2664 50.9214V86.8549H18.942V50.9214H17.2664ZM18.1042 87.6927H22.8953V86.0171H18.1042V87.6927ZM22.8953 87.6927C27.0735 87.6927 30.3739 86.1974 32.6743 83.1585L31.3384 82.1472C29.3975 84.7111 26.6239 86.0171 22.8953 86.0171V87.6927ZM32.6766 83.1556C34.9524 80.1212 36.0252 75.7211 36.0252 70.086H34.3496C34.3496 75.5516 33.3017 79.5295 31.3361 82.1502L32.6766 83.1556ZM36.0252 70.086V67.6119H34.3496V70.086H36.0252ZM36.0252 67.6119C36.0252 62.0026 34.9523 57.627 32.6743 54.6178L31.3384 55.6291C33.3018 58.2227 34.3496 62.1727 34.3496 67.6119H36.0252ZM32.6743 54.6178C30.3694 51.573 27.0125 50.0836 22.7383 50.0836V51.7592C26.5801 51.7592 29.402 53.0712 31.3384 55.6291L32.6743 54.6178ZM22.7383 50.0836H18.1042V51.7592H22.7383V50.0836ZM100.625 73.2277V74.0655H101.463V73.2277H100.625ZM78.9469 73.2277V72.3899H78.1091V73.2277H78.9469ZM78.9469 86.8549H78.1091V87.6927H78.9469V86.8549ZM104.552 86.8549H105.39V86.0171H104.552V86.8549ZM104.552 97.4583V98.2961H105.39V97.4583H104.552ZM65.1626 97.4583H64.3248V98.2961H65.1626V97.4583ZM65.1626 40.2788V39.441H64.3248V40.2788H65.1626ZM104.631 40.2788H105.468V39.441H104.631V40.2788ZM104.631 50.9214V51.7592H105.468V50.9214H104.631ZM78.9469 50.9214V50.0836H78.1091V50.9214H78.9469ZM78.9469 62.9778H78.1091V63.8156H78.9469V62.9778ZM100.625 62.9778H101.463V62.14H100.625V62.9778ZM100.625 72.3899H78.9469V74.0655H100.625V72.3899ZM78.1091 73.2277V86.8549H79.7847V73.2277H78.1091ZM78.9469 87.6927H104.552V86.0171H78.9469V87.6927ZM103.714 86.8549V97.4583H105.39V86.8549H103.714ZM104.552 96.6205H65.1626V98.2961H104.552V96.6205ZM66.0004 97.4583V40.2788H64.3248V97.4583H66.0004ZM65.1626 41.1166H104.631V39.441H65.1626V41.1166ZM103.793 40.2788V50.9214H105.468V40.2788H103.793ZM104.631 50.0836H78.9469V51.7592H104.631V50.0836ZM78.1091 50.9214V62.9778H79.7847V50.9214H78.1091ZM78.9469 63.8156H100.625V62.14H78.9469V63.8156ZM99.7871 62.9778V73.2277H101.463V62.9778H99.7871ZM146.348 77.5476L145.826 78.203L145.832 78.2076L146.348 77.5476ZM130.05 70.5572L130.422 69.8062L130.42 69.8052L130.05 70.5572ZM121.685 47.1906L121.02 46.6822L121.019 46.6833L121.685 47.1906ZM129.54 41.5355L129.848 42.3146L129.853 42.3125L129.54 41.5355ZM151.964 41.6926L151.619 42.4561L151.621 42.4572L151.964 41.6926ZM159.583 47.976L158.884 48.4392L158.886 48.4423L159.583 47.976ZM162.292 57.2441V58.0819H163.13V57.2441H162.292ZM148.547 57.2441H147.709V58.0819H148.547V57.2441ZM146.387 51.8247L145.824 52.4451L145.83 52.4502L146.387 51.8247ZM134.763 51.5498L135.27 52.217L135.271 52.2156L134.763 51.5498ZM134.999 59.679L134.489 60.3439L134.496 60.3492L134.999 59.679ZM143.285 63.3705L143.026 64.1674L143.031 64.1689L143.285 63.3705ZM153.024 67.4548L152.605 68.1803L152.606 68.1807L153.024 67.4548ZM128.519 95.7696L128.176 96.5343L128.183 96.5371L128.519 95.7696ZM120.036 88.9363L119.333 89.3923L119.338 89.3996L120.036 88.9363ZM117.208 78.9221V78.0843H116.371V78.9221H117.208ZM131.032 78.9221H131.87V78.0843H131.032V78.9221ZM133.388 85.7161L132.817 86.3285L132.822 86.3335L132.827 86.3383L133.388 85.7161ZM146.505 86.423L147.003 87.0964L147.006 87.0948L146.505 86.423ZM149.346 82.2602C149.346 80.0168 148.53 78.1899 146.864 76.8875L145.832 78.2076C147.046 79.1568 147.67 80.4716 147.67 82.2602H149.346ZM146.87 76.8922C145.334 75.6695 142.715 74.4672 139.114 73.2582L138.58 74.8466C142.153 76.0463 144.534 77.1741 145.826 78.203L146.87 76.8922ZM139.114 73.2582C135.547 72.0607 132.653 70.9093 130.422 69.8062L129.679 71.3083C132.003 72.4567 134.973 73.6355 138.58 74.8466L139.114 73.2582ZM130.42 69.8052C123.196 66.2572 119.774 61.499 119.774 55.5555H118.099C118.099 62.3359 122.086 67.5789 129.681 71.3092L130.42 69.8052ZM119.774 55.5555C119.774 52.5616 120.636 49.9536 122.352 47.6979L121.019 46.6833C119.07 49.2449 118.099 52.2135 118.099 55.5555H119.774ZM122.351 47.699C124.102 45.4061 126.586 43.6043 129.848 42.3146L129.232 40.7564C125.739 42.1372 122.987 44.1055 121.02 46.6822L122.351 47.699ZM129.853 42.3125C133.116 40.9971 136.804 40.3312 140.929 40.3312V38.6556C136.623 38.6556 132.718 39.3511 129.227 40.7585L129.853 42.3125ZM140.929 40.3312C144.938 40.3312 148.496 41.0459 151.619 42.4561L152.309 40.929C148.938 39.407 145.14 38.6556 140.929 38.6556V40.3312ZM151.621 42.4572C154.764 43.865 157.174 45.8612 158.884 48.4392L160.281 47.5129C158.378 44.6452 155.709 42.4524 152.306 40.928L151.621 42.4572ZM158.886 48.4423C160.594 50.9909 161.454 53.9154 161.454 57.2441H163.13C163.13 53.6087 162.184 50.3545 160.279 47.5098L158.886 48.4423ZM162.292 56.4064H148.547V58.0819H162.292V56.4064ZM149.385 57.2441C149.385 54.7292 148.6 52.6737 146.945 51.1991L145.83 52.4502C147.055 53.5413 147.709 55.0989 147.709 57.2441H149.385ZM146.95 51.2042C145.343 49.7462 143.198 49.0626 140.614 49.0626V50.7381C142.9 50.7381 144.604 51.3374 145.824 52.4451L146.95 51.2042ZM140.614 49.0626C138.035 49.0626 135.885 49.6388 134.254 50.8839L135.271 52.2156C136.521 51.2615 138.272 50.7381 140.614 50.7381V49.0626ZM134.256 50.8825C132.648 52.1034 131.804 53.7181 131.804 55.6733H133.48C133.48 54.2772 134.05 53.143 135.27 52.217L134.256 50.8825ZM131.804 55.6733C131.804 57.4845 132.789 59.0407 134.489 60.3439L135.508 59.0141C134.066 57.9086 133.48 56.7943 133.48 55.6733H131.804ZM134.496 60.3492C136.185 61.6159 139.061 62.8806 143.026 64.1674L143.543 62.5736C139.602 61.2947 136.954 60.0983 135.501 59.0088L134.496 60.3492ZM143.031 64.1689C146.948 65.4142 150.135 66.7539 152.605 68.1803L153.443 66.7292C150.835 65.2234 147.528 63.8402 143.539 62.5721L143.031 64.1689ZM152.606 68.1807C158.569 71.6168 161.454 76.2709 161.454 82.1816H163.13C163.13 75.5777 159.837 70.414 153.442 66.7289L152.606 68.1807ZM161.454 82.1816C161.454 86.9374 159.679 90.6101 156.132 93.2951L157.143 94.6311C161.136 91.6087 163.13 87.427 163.13 82.1816H161.454ZM156.132 93.2951C152.554 96.0029 147.583 97.4059 141.125 97.4059V99.0815C147.809 99.0815 153.18 97.6307 157.143 94.6311L156.132 93.2951ZM141.125 97.4059C136.592 97.4059 132.506 96.5996 128.855 95.002L128.183 96.5371C132.071 98.2384 136.39 99.0815 141.125 99.0815V97.4059ZM128.861 95.0049C125.234 93.3818 122.542 91.1979 120.734 88.4731L119.338 89.3996C121.352 92.4346 124.315 94.8062 128.176 96.5343L128.861 95.0049ZM120.739 88.4804C118.95 85.7221 118.046 82.5452 118.046 78.9221H116.371C116.371 82.8391 117.352 86.3384 119.333 89.3923L120.739 88.4804ZM117.208 79.7599H131.032V78.0843H117.208V79.7599ZM130.194 78.9221C130.194 82.1168 131.014 84.6463 132.817 86.3285L133.96 85.1036C132.621 83.8535 131.87 81.8537 131.87 78.9221H130.194ZM132.827 86.3383C134.652 87.9834 137.484 88.7138 141.125 88.7138V87.0382C137.645 87.0382 135.319 86.3287 133.949 85.0938L132.827 86.3383ZM141.125 88.7138C143.512 88.7138 145.503 88.2069 147.003 87.0964L146.007 85.7495C144.889 86.5764 143.293 87.0382 141.125 87.0382V88.7138ZM147.006 87.0948C148.57 85.9295 149.346 84.2838 149.346 82.2602H147.67C147.67 83.7972 147.111 84.9267 146.005 85.7511L147.006 87.0948ZM192.896 97.4583V98.2961H193.734V97.4583H192.896ZM179.151 97.4583H178.313V98.2961H179.151V97.4583ZM179.151 40.2788V39.441H178.313V40.2788H179.151ZM192.896 40.2788H193.734V39.441H192.896V40.2788ZM192.896 96.6205H179.151V98.2961H192.896V96.6205ZM179.989 97.4583V40.2788H178.313V97.4583H179.989ZM179.151 41.1166H192.896V39.441H179.151V41.1166ZM192.058 40.2788V97.4583H193.734V40.2788H192.058ZM258.137 90.3894L258.76 90.9498L258.975 90.7109V90.3894H258.137ZM210.265 72.2459L209.427 72.2525L209.427 72.2653L209.428 72.2781L210.265 72.2459ZM210.226 67.2977H209.388L209.388 67.3043L210.226 67.2977ZM213.21 52.5708L213.967 52.9303L213.968 52.9285L213.21 52.5708ZM221.732 42.8707L222.168 43.586L222.17 43.5851L221.732 42.8707ZM251.186 44.3631L250.65 45.0067L250.654 45.0105L251.186 44.3631ZM258.098 58.9328V59.7706H259.025L258.931 58.8485L258.098 58.9328ZM244.824 58.9328L243.995 59.0551L244.101 59.7706H244.824V58.9328ZM224.206 67.0228L223.369 67.0187V67.0228H224.206ZM227.112 83.3598L226.417 83.8274L226.422 83.8347L227.112 83.3598ZM244.353 85.2448L244.917 85.8643L245.19 85.615V85.2448H244.353ZM244.353 76.3694H245.19V75.5316H244.353V76.3694ZM234.77 76.3694H233.933V77.2072H234.77V76.3694ZM234.77 66.905V66.0672H233.933V66.905H234.77ZM258.137 66.905H258.975V66.0672H258.137V66.905ZM257.514 89.8289C255.515 92.05 252.549 93.884 248.551 95.2936L249.108 96.8739C253.278 95.4036 256.517 93.4414 258.76 90.9498L257.514 89.8289ZM248.551 95.2936C244.567 96.6984 240.185 97.4059 235.399 97.4059V99.0815C240.352 99.0815 244.924 98.3491 249.108 96.8739L248.551 95.2936ZM235.399 97.4059C228.095 97.4059 222.343 95.1787 218.051 90.7857L216.852 91.9567C221.514 96.727 227.727 99.0815 235.399 99.0815V97.4059ZM218.051 90.7857C213.756 86.3901 211.411 80.2339 211.102 72.2137L209.428 72.2781C209.748 80.5949 212.194 87.1889 216.852 91.9567L218.051 90.7857ZM211.103 72.2393L211.063 67.291L209.388 67.3043L209.427 72.2525L211.103 72.2393ZM211.063 67.2977C211.063 61.767 212.041 56.9855 213.967 52.9303L212.454 52.2114C210.4 56.5341 209.388 61.5705 209.388 67.2977H211.063ZM213.968 52.9285C215.893 48.8493 218.628 45.7456 222.168 43.586L221.296 42.1555C217.454 44.499 214.507 47.8621 212.453 52.2132L213.968 52.9285ZM222.17 43.5851C225.741 41.3972 229.88 40.2919 234.613 40.2919V38.6163C229.608 38.6163 225.159 39.7887 221.295 42.1564L222.17 43.5851ZM234.613 40.2919C241.615 40.2919 246.923 41.9009 250.65 45.0067L251.722 43.7194C247.595 40.2799 241.854 38.6163 234.613 38.6163V40.2919ZM250.654 45.0105C254.393 48.0811 256.626 52.7081 257.264 59.0172L258.931 58.8485C258.261 52.2241 255.885 47.1379 251.718 43.7156L250.654 45.0105ZM258.098 58.095H244.824V59.7706H258.098V58.095ZM245.653 58.8105C245.168 55.5228 244.096 53.0149 242.309 51.4665L241.212 52.7327C242.567 53.9071 243.538 55.9547 243.995 59.0551L245.653 58.8105ZM242.309 51.4665C240.536 49.9298 238.089 49.2196 235.085 49.2196V50.8952C237.84 50.8952 239.843 51.5465 241.212 52.7327L242.309 51.4665ZM235.085 49.2196C231.341 49.2196 228.406 50.8333 226.368 54.0028L227.778 54.9089C229.51 52.2139 231.917 50.8952 235.085 50.8952V49.2196ZM226.368 54.0028C224.362 57.1246 223.395 61.4961 223.369 67.0187L225.044 67.0268C225.07 61.6581 226.015 57.6517 227.778 54.9089L226.368 54.0028ZM223.369 67.0228V70.4787H225.044V67.0228H223.369ZM223.369 70.4787C223.369 76.2556 224.344 80.7462 226.417 83.8274L227.808 82.8921C226.006 80.2135 225.044 76.1167 225.044 70.4787H223.369ZM226.422 83.8347C228.576 86.9649 231.942 88.4782 236.341 88.4782V86.8026C232.362 86.8026 229.576 85.4621 227.803 82.8849L226.422 83.8347ZM236.341 88.4782C240.033 88.4782 242.946 87.6588 244.917 85.8643L243.789 84.6253C242.251 86.0249 239.823 86.8026 236.341 86.8026V88.4782ZM245.19 85.2448V76.3694H243.515V85.2448H245.19ZM244.353 75.5316H234.77V77.2072H244.353V75.5316ZM235.608 76.3694V66.905H233.933V76.3694H235.608ZM234.77 67.7428H258.137V66.0672H234.77V67.7428ZM257.299 66.905V90.3894H258.975V66.905H257.299ZM322.75 97.4583V98.2961H323.588V97.4583H322.75ZM309.044 97.4583L308.316 97.8729L308.557 98.2961H309.044V97.4583ZM288.78 61.8782L289.508 61.4636L287.942 58.7143V61.8782H288.78ZM288.78 97.4583V98.2961H289.618V97.4583H288.78ZM274.996 97.4583H274.158V98.2961H274.996V97.4583ZM274.996 40.2788V39.441H274.158V40.2788H274.996ZM288.78 40.2788L289.508 39.8648L289.267 39.441H288.78V40.2788ZM309.005 75.8589L308.276 76.2729L309.843 79.0281V75.8589H309.005ZM309.005 40.2788V39.441H308.167V40.2788H309.005ZM322.75 40.2788H323.588V39.441H322.75V40.2788ZM322.75 96.6205H309.044V98.2961H322.75V96.6205ZM309.772 97.0436L289.508 61.4636L288.052 62.2928L308.316 97.8729L309.772 97.0436ZM287.942 61.8782V97.4583H289.618V61.8782H287.942ZM288.78 96.6205H274.996V98.2961H288.78V96.6205ZM275.833 97.4583V40.2788H274.158V97.4583H275.833ZM274.996 41.1166H288.78V39.441H274.996V41.1166ZM288.051 40.6928L308.276 76.2729L309.733 75.4449L289.508 39.8648L288.051 40.6928ZM309.843 75.8589V40.2788H308.167V75.8589H309.843ZM309.005 41.1166H322.75V39.441H309.005V41.1166ZM321.912 40.2788V97.4583H323.588V40.2788H321.912Z" fill="white"/>
<path d="M15.5056 13.6689L17.1452 4.70513H20.5619L17.5281 19H13.9544L12.0399 10.8511L10.1647 19H6.6008L3.55725 4.70513H6.9837L8.62329 13.6689L10.5869 4.70513H13.5126L15.5056 13.6689ZM32.9843 12.9424H27.5648V16.3492H33.966V19H24.1187V4.70513H33.9857V7.36579H27.5648V10.3799H32.9843V12.9424ZM41.0279 16.3492H47.0266V19H37.5818V4.70513H41.0279V16.3492ZM61.6286 14.1598C61.5828 15.1547 61.3144 16.035 60.8235 16.8008C60.3326 17.56 59.6421 18.1491 58.7519 18.568C57.8683 18.9869 56.8571 19.1964 55.7182 19.1964C53.8397 19.1964 52.3605 18.5844 51.2805 17.3604C50.2005 16.1364 49.6605 14.4085 49.6605 12.1766V11.4697C49.6605 10.069 49.9027 8.84502 50.3871 7.79777C50.878 6.74399 51.5816 5.93237 52.4979 5.36293C53.4143 4.78695 54.4746 4.49896 55.6789 4.49896C57.4134 4.49896 58.8076 4.95713 59.8613 5.87347C60.9151 6.78326 61.514 8.03995 61.658 9.64354H58.2218C58.1956 8.77302 57.9763 8.14795 57.564 7.76832C57.1516 7.38869 56.5233 7.19888 55.6789 7.19888C54.8215 7.19888 54.1931 7.5196 53.7939 8.16104C53.3946 8.80247 53.1852 9.82681 53.1655 11.234V12.2453C53.1655 13.7703 53.3554 14.8601 53.735 15.5146C54.1211 16.1692 54.7822 16.4964 55.7182 16.4964C56.5102 16.4964 57.1156 16.3099 57.5345 15.9368C57.9534 15.5637 58.1759 14.9714 58.2021 14.1598H61.6286ZM77.5756 12.1471C77.5756 13.5412 77.3171 14.775 76.8 15.8485C76.2829 16.9219 75.5466 17.7499 74.591 18.3324C73.6419 18.9084 72.5586 19.1964 71.3412 19.1964C70.1238 19.1964 69.0438 18.9182 68.1013 18.3618C67.1588 17.7989 66.4225 16.9971 65.8923 15.9565C65.3687 14.9158 65.0938 13.7212 65.0676 12.3729V11.5678C65.0676 10.1672 65.3229 8.93338 65.8334 7.8665C66.3505 6.79308 67.0868 5.9651 68.0424 5.38257C69.0046 4.80004 70.0976 4.50878 71.3216 4.50878C72.5325 4.50878 73.6124 4.79677 74.5615 5.37275C75.5106 5.94874 76.2469 6.77017 76.7705 7.83705C77.3007 8.89738 77.569 10.1148 77.5756 11.4893V12.1471ZM74.0706 11.5482C74.0706 10.1279 73.8317 9.05119 73.3539 8.31812C72.8826 7.57851 72.2052 7.2087 71.3216 7.2087C69.5936 7.2087 68.6806 8.50466 68.5824 11.0966L68.5726 12.1471C68.5726 13.5478 68.8049 14.6245 69.2696 15.3772C69.7344 16.1299 70.4249 16.5063 71.3412 16.5063C72.2117 16.5063 72.8826 16.1364 73.3539 15.3968C73.8252 14.6572 74.0641 13.5936 74.0706 12.206V11.5482ZM86.0905 4.70513L89.2813 14.6507L92.4623 4.70513H96.9982V19H93.5423V15.6619L93.8761 8.82865L90.4202 19H88.1424L84.6767 8.81884L85.0105 15.6619V19H81.5644V4.70513H86.0905ZM110.275 12.9424H104.855V16.3492H111.256V19H101.409V4.70513H111.276V7.36579H104.855V10.3799H110.275V12.9424ZM132.724 7.36579H128.434V19H124.987V7.36579H120.776V4.70513H132.724V7.36579ZM148.229 12.1471C148.229 13.5412 147.971 14.775 147.454 15.8485C146.936 16.9219 146.2 17.7499 145.245 18.3324C144.295 18.9084 143.212 19.1964 141.995 19.1964C140.777 19.1964 139.697 18.9182 138.755 18.3618C137.812 17.7989 137.076 16.9971 136.546 15.9565C136.022 14.9158 135.747 13.7212 135.721 12.3729V11.5678C135.721 10.1672 135.976 8.93338 136.487 7.8665C137.004 6.79308 137.74 5.9651 138.696 5.38257C139.658 4.80004 140.751 4.50878 141.975 4.50878C143.186 4.50878 144.266 4.79677 145.215 5.37275C146.164 5.94874 146.9 6.77017 147.424 7.83705C147.954 8.89738 148.223 10.1148 148.229 11.4893V12.1471ZM144.724 11.5482C144.724 10.1279 144.485 9.05119 144.007 8.31812C143.536 7.57851 142.859 7.2087 141.975 7.2087C140.247 7.2087 139.334 8.50466 139.236 11.0966L139.226 12.1471C139.226 13.5478 139.458 14.6245 139.923 15.3772C140.388 16.1299 141.078 16.5063 141.995 16.5063C142.865 16.5063 143.536 16.1364 144.007 15.3968C144.479 14.6572 144.718 13.5936 144.724 12.206V11.5482Z" fill="white"/>
</svg>
