<svg width="58" height="59" viewBox="0 0 58 59" fill="none" xmlns="http://www.w3.org/2000/svg">
<path d="M38.2256 26.9388C41.9661 26.9388 45.0268 23.88 45.0268 20.142C45.0268 16.404 41.9661 13.3451 38.2256 13.3451C34.4851 13.3451 31.4246 16.404 31.4246 20.142C31.4246 23.88 34.4851 26.9388 38.2256 26.9388ZM20.0893 26.9388C23.8299 26.9388 26.8904 23.88 26.8904 20.142C26.8904 16.404 23.8299 13.3451 20.0893 13.3451C16.3488 13.3451 13.2881 16.404 13.2881 20.142C13.2881 23.88 16.3488 26.9388 20.0893 26.9388ZM20.0893 31.9232C14.7614 31.9232 4.21997 34.5285 4.21997 39.8529V45.9701H36.2825V39.8529C36.2825 34.5285 25.417 31.9232 20.0893 31.9232ZM38.2256 33.1697C37.5459 33.1697 37.0761 33.1697 36.2825 33.2826C38.8904 35.2086 39.845 36.4545 39.845 39.8529V45.9701H54.095V39.8529C54.095 34.5285 43.5535 33.1697 38.2256 33.1697Z" fill="#5557FE"/>
</svg>
