<svg width="121" height="121" viewBox="0 0 121 121" fill="none" xmlns="http://www.w3.org/2000/svg">
<circle cx="1" cy="1" r="1" fill="black"/>
<circle cx="1" cy="18" r="1" fill="black"/>
<circle cx="1" cy="35" r="1" fill="black"/>
<circle cx="1" cy="52" r="1" fill="black"/>
<circle cx="1" cy="69" r="1" fill="black"/>
<circle cx="1" cy="86" r="1" fill="black"/>
<circle cx="1" cy="103" r="1" fill="black"/>
<circle cx="1" cy="120" r="1" fill="black"/>
<circle cx="18" cy="1" r="1" fill="black"/>
<circle cx="18" cy="18" r="1" fill="black"/>
<circle cx="18" cy="35" r="1" fill="black"/>
<circle cx="18" cy="52" r="1" fill="black"/>
<circle cx="18" cy="69" r="1" fill="black"/>
<circle cx="18" cy="86" r="1" fill="black"/>
<circle cx="18" cy="103" r="1" fill="black"/>
<circle cx="18" cy="120" r="1" fill="black"/>
<circle cx="35" cy="1" r="1" fill="black"/>
<circle cx="35" cy="18" r="1" fill="black"/>
<circle cx="35" cy="35" r="1" fill="black"/>
<circle cx="35" cy="52" r="1" fill="black"/>
<circle cx="35" cy="69" r="1" fill="black"/>
<circle cx="35" cy="86" r="1" fill="black"/>
<circle cx="35" cy="103" r="1" fill="black"/>
<circle cx="35" cy="120" r="1" fill="black"/>
<circle cx="52" cy="1" r="1" fill="black"/>
<circle cx="52" cy="18" r="1" fill="black"/>
<circle cx="52" cy="35" r="1" fill="black"/>
<circle cx="52" cy="52" r="1" fill="black"/>
<circle cx="52" cy="69" r="1" fill="black"/>
<circle cx="52" cy="86" r="1" fill="black"/>
<circle cx="52" cy="103" r="1" fill="black"/>
<circle cx="52" cy="120" r="1" fill="black"/>
<circle cx="69" cy="1" r="1" fill="black"/>
<circle cx="69" cy="18" r="1" fill="black"/>
<circle cx="69" cy="35" r="1" fill="black"/>
<circle cx="69" cy="52" r="1" fill="black"/>
<circle cx="69" cy="69" r="1" fill="black"/>
<circle cx="69" cy="86" r="1" fill="black"/>
<circle cx="69" cy="103" r="1" fill="black"/>
<circle cx="69" cy="120" r="1" fill="black"/>
<circle cx="86" cy="1" r="1" fill="black"/>
<circle cx="86" cy="18" r="1" fill="black"/>
<circle cx="86" cy="35" r="1" fill="black"/>
<circle cx="86" cy="52" r="1" fill="black"/>
<circle cx="86" cy="69" r="1" fill="black"/>
<circle cx="86" cy="86" r="1" fill="black"/>
<circle cx="86" cy="103" r="1" fill="black"/>
<circle cx="86" cy="120" r="1" fill="black"/>
<circle cx="103" cy="1" r="1" fill="black"/>
<circle cx="103" cy="18" r="1" fill="black"/>
<circle cx="103" cy="35" r="1" fill="black"/>
<circle cx="103" cy="52" r="1" fill="black"/>
<circle cx="103" cy="69" r="1" fill="black"/>
<circle cx="103" cy="86" r="1" fill="black"/>
<circle cx="103" cy="103" r="1" fill="black"/>
<circle cx="103" cy="120" r="1" fill="black"/>
<circle cx="120" cy="1" r="1" fill="black"/>
<circle cx="120" cy="18" r="1" fill="black"/>
<circle cx="120" cy="35" r="1" fill="black"/>
<circle cx="120" cy="52" r="1" fill="black"/>
<circle cx="120" cy="69" r="1" fill="black"/>
<circle cx="120" cy="86" r="1" fill="black"/>
<circle cx="120" cy="103" r="1" fill="black"/>
<circle cx="120" cy="120" r="1" fill="black"/>
</svg>
