<svg width="45" height="35" viewBox="0 0 45 35" fill="none" xmlns="http://www.w3.org/2000/svg">
<path d="M15.1396 14.0078H9.63957V6.16554H5.9729V14.0078H0.4729V19.2359H5.9729V27.0782H9.63957V19.2359H15.1396V14.0078ZM33.4729 16.6219C36.5162 16.6219 38.9546 13.119 38.9546 8.77962C38.9546 4.44024 36.5162 0.937378 33.4729 0.937378C32.8862 0.937378 32.3179 1.06808 31.8046 1.30335C32.8496 3.42075 33.4546 5.98255 33.4546 8.77962C33.4546 11.5767 32.8312 14.1123 31.8046 16.2559C32.3179 16.4911 32.8862 16.6219 33.4729 16.6219ZM24.3062 16.6219C27.3496 16.6219 29.7879 13.119 29.7879 8.77962C29.7879 4.44024 27.3496 0.937378 24.3062 0.937378C21.2629 0.937378 18.8062 4.44024 18.8062 8.77962C18.8062 13.119 21.2629 16.6219 24.3062 16.6219ZM36.4429 22.2683C37.9646 24.1765 38.9729 26.6076 38.9729 29.6923V34.9204H44.4729V29.6923C44.4729 25.6666 40.1279 23.1832 36.4429 22.2683ZM24.3062 21.85C20.6396 21.85 13.3062 24.4641 13.3062 29.6923V34.9204H35.3062V29.6923C35.3062 24.4641 27.9729 21.85 24.3062 21.85Z" fill="#5557FE"/>
</svg>
