<svg width="1440" height="5701" viewBox="0 0 1440 5701" fill="none" xmlns="http://www.w3.org/2000/svg" xmlns:xlink="http://www.w3.org/1999/xlink">
<g clip-path="url(#clip0)">
<rect width="1440" height="5700" transform="translate(0 0.657593)" fill="white"/>
<path d="M690.5 8.52216L690.5 616.429L1558.34 616.429L1558.34 8.52217L690.5 8.52216Z" fill="white"/>
<path d="M1418.19 76.7942C1445.16 51.4478 1467.63 21.1955 1484.38 -12.7361C1489.29 -22.9564 1493.78 -33.5856 1497.87 -44.6236C1398.17 -42.5795 1298.48 -40.1266 1198.78 -38.0825C1105.62 -36.0385 1012.87 -33.9944 919.717 -31.9503C923.802 -22.1388 928.297 -12.3273 933.2 -2.92455C949.543 28.1453 971.198 55.5359 996.122 78.8383C1050.46 129.122 1122.38 159.375 1198.78 161.419C1204.09 161.419 1209 161.419 1214.31 161.419C1291.53 158.966 1363.85 127.896 1418.19 76.7942Z" fill="url(#paint1_linear)"/>
<path d="M1320.54 700.645C1360.99 676.116 1370.39 629.102 1363.44 580.862C1358.13 544.069 1343.42 506.867 1325.03 477.841C1317.68 465.985 1308.28 452.086 1297.66 438.595C1278.86 414.883 1255.57 392.808 1231.06 386.266C1184.48 373.593 1164.46 439.821 1148.12 469.256C1139.13 485.608 1128.1 501.552 1112.57 512.59C1104.4 518.313 1096.63 521.584 1088.46 523.219C1045.97 532.213 1004.7 493.376 969.155 473.344C916.448 443.909 856.794 442.274 805.312 475.797C798.366 480.294 791.829 485.2 785.7 490.105C745.25 523.628 717.875 571.051 705.617 622.152C694.994 666.304 692.134 723.538 726.864 757.061C770.991 799.578 835.956 755.017 998.574 730.079C1018.59 726.809 1040.25 723.947 1063.13 721.903C1133.82 714.544 1205.73 728.035 1276.41 716.588C1293.98 713.318 1308.69 708.003 1320.54 700.645Z" fill="url(#paint2_linear)"/>
<rect x="1247.08" y="518.034" width="625.976" height="392.242" transform="rotate(-90 1247.08 518.034)" fill="url(#pattern0)"/>
<path d="M1420.64 -41.7619C1424.32 -22.1388 1422.28 -0.471648 1412.47 23.6484C1385.1 90.2851 1336.88 144.249 1325.03 217.426C1316.05 272.616 1320.54 333.53 1352 381.361C1360.99 394.852 1371.61 406.298 1384.28 416.11C1394.49 424.286 1405.93 431.645 1417.78 436.551C1465.18 455.765 1516.66 463.941 1567.73 459.853C1586.94 458.218 1587.35 458.218 1588.57 443.501C1591.02 413.248 1588.57 381.77 1588.57 351.517L1588.57 -41.7619L1420.64 -41.7619Z" fill="url(#paint3_linear)"/>
<path d="M1412.88 -123.934C1417.37 -99.8135 1414.92 -73.2407 1402.66 -43.806C1369.16 37.9568 1309.92 104.185 1295.21 193.715C1284.17 261.169 1289.49 335.982 1327.89 394.852C1338.93 411.613 1352 425.513 1367.53 437.368C1380.19 447.18 1394.08 456.174 1408.79 462.306C1466.81 486.017 1530.14 495.829 1592.66 490.923C1616.36 489.288 1616.76 488.879 1618.4 470.891C1621.26 433.689 1618.4 395.26 1618.4 358.058L1618.4 -124.342L1412.88 -124.342L1412.88 -123.934Z" stroke="#B172C4" stroke-width="0.5" stroke-miterlimit="10"/>
<path opacity="0.3" d="M1583.26 530.578C1571.41 526.081 1448.02 474.57 1418.6 343.75C1398.58 255.446 1425.14 144.249 1507.26 89.0587C1546.9 62.4857 1588.16 56.3535 1613.5 55.1271L1583.26 530.578Z" fill="url(#paint4_linear)"/>
<path d="M744.433 54.7183C744.433 47.9448 738.945 42.4539 732.176 42.4539C725.406 42.4539 719.918 47.9448 719.918 54.7183C719.918 61.4917 725.406 66.9827 732.176 66.9827C738.945 66.9827 744.433 61.4917 744.433 54.7183Z" stroke="url(#paint5_linear)" stroke-width="0.75" stroke-miterlimit="10"/>
<path d="M762.82 551.836C762.82 546.869 758.795 542.842 753.831 542.842C748.866 542.842 744.842 546.869 744.842 551.836C744.842 556.803 748.866 560.83 753.831 560.83C758.795 560.83 762.82 556.803 762.82 551.836Z" stroke="white" stroke-width="0.75" stroke-miterlimit="10"/>
<path d="M1412.06 203.527C1412.06 195.398 1405.48 188.809 1397.35 188.809C1389.23 188.809 1382.64 195.398 1382.64 203.527C1382.64 211.655 1389.23 218.244 1397.35 218.244C1405.48 218.244 1412.06 211.655 1412.06 203.527Z" stroke="white" stroke-width="0.75" stroke-miterlimit="10"/>
<path d="M65.2654 732.394L-114.377 921.089L155.3 1177.53L334.942 988.836L65.2654 732.394Z" fill="white"/>
<path d="M28.7477 280.124C17.8782 268.56 4.90729 258.924 -9.63905 251.74C-14.0204 249.638 -18.5769 247.711 -23.3085 245.959C-22.4078 288.709 -21.3319 331.46 -20.4312 374.21C-19.5321 414.157 -18.6331 453.929 -17.7341 493.877C-13.5301 492.125 -9.32627 490.197 -5.29771 488.095C8.01399 481.087 19.7475 471.801 29.7281 461.113C51.2652 437.81 64.2127 406.974 65.0699 374.21C65.0686 371.933 65.0673 369.83 65.066 367.552C63.9957 334.438 50.662 303.427 28.7477 280.124Z" fill="url(#paint6_linear)"/>
<path d="M-132.008 1091.09C-134.69 1111.19 -121.513 1126.96 -103.532 1137.59C-89.8139 1145.7 -73.4326 1150.78 -58.7937 1152.43C-52.8562 1153.16 -45.6867 1153.75 -38.3242 1153.82C-25.3507 1153.91 -11.715 1152.06 -2.93892 1145.63C13.8176 1133.48 -2.92147 1109 -8.35929 1095.64C-11.4047 1088.24 -13.7643 1080.28 -13.2769 1072.13C-12.9916 1067.86 -11.9968 1064.39 -10.3459 1061.22C-1.92532 1044.61 22.1427 1041.26 38.3912 1034.76C62.3943 1025.06 78.9792 1005.57 81.6233 979.375C81.9887 975.848 82.1077 972.346 82.1169 968.982C82.0413 946.441 73.4245 924.452 59.7873 906.744C47.8955 891.338 29.5468 875.013 9.01165 877.611C-17.0543 880.933 -19.6366 914.6 -55.0286 975.616C-59.319 983.182 -64.1854 991.184 -69.6544 999.376C-86.2012 1024.96 -110.042 1045.36 -125.223 1072.05C-128.991 1078.68 -131.17 1085.02 -132.008 1091.09Z" fill="url(#paint7_linear)"/>
<rect width="1045.99" height="1016.2" transform="matrix(0.165485 -0.173824 0.17392 0.165384 -163.006 917.042)" fill="url(#pattern1)"/>
<path d="M19.8553 810.584C9.7288 802.164 3.23884 790.431 -0.791853 777.895L-135.131 919.004L-10.5769 1037.45C-7.45052 1028.57 -2.07571 1020.38 6.07389 1014.11C16.779 1005.92 29.831 1002.37 41.8365 996.62C54.4584 990.731 66.2938 983.127 76.0855 973.096C91.1989 957.729 103.851 938.087 104.789 916.011C105.861 894.303 97.3964 872.956 84.0811 855.943C76.9094 846.705 68.0278 838.501 57.9629 832.557C45.504 825.061 31.1246 820.092 19.8553 810.584Z" fill="url(#paint8_linear)"/>
<rect width="1051.24" height="825.226" transform="matrix(0.165485 -0.173824 0.17392 0.165384 -164.348 920.993)" fill="url(#pattern2)"/>
<path d="M-38.2983 809.109L-144.248 920.398C-115.426 947.805 -86.3693 974.71 -58.0311 1002.62C-56.5577 987.101 -43.8543 974.52 -30.0305 967.115C4.46864 948.664 52.6309 941.272 68.9653 900.229C77.718 878.33 73.1317 853.417 56.7222 836.604C36.2375 815.433 3.63491 805.465 -25.2032 807.297C-29.657 807.655 -33.9838 808.135 -38.2983 809.109Z" fill="url(#paint9_linear)"/>
<path d="M27.962 2326.75L245.145 2182.84L39.4138 1872.74L-177.769 2016.64L27.962 2326.75Z" fill="white"/>
<path d="M345.833 1985.79C347.26 1961.68 329.258 1941.48 305.737 1927.1C287.793 1916.13 266.808 1908.61 248.331 1905.38C240.832 1904.01 231.803 1902.69 222.583 1901.98C206.341 1900.78 189.456 1901.88 179.092 1908.94C159.291 1922.25 182.586 1953.29 190.673 1969.93C195.193 1979.14 198.911 1988.98 199.083 1998.81C199.136 2003.96 198.224 2008.08 196.462 2011.78C187.52 2031.18 157.725 2033.23 138.016 2039.73C108.912 2049.47 90.0296 2071.68 89.2358 2103.18C89.1172 2107.43 89.3044 2111.65 89.6159 2115.73C91.8741 2143.03 104.767 2170.38 123.531 2192.97C139.89 2212.62 164.418 2233.92 189.864 2232.5C222.162 2230.66 222.162 2190.11 260.592 2119.18C265.234 2110.38 270.555 2101.1 276.613 2091.64C294.862 2062.04 322.736 2039.33 339.171 2008.29C343.249 2000.57 345.367 1993.07 345.833 1985.79Z" fill="url(#paint10_linear)"/>
<path d="M598.641 2407.42C604.297 2426.89 622.715 2436 643.459 2438.47C659.282 2440.35 676.319 2438.39 690.38 2433.99C696.106 2432.26 702.906 2429.91 709.672 2427.01C721.579 2421.86 733.308 2414.66 738.742 2405.24C749.169 2387.35 723.978 2371.71 713.61 2361.68C707.84 2356.14 702.466 2349.81 699.624 2342.15C698.163 2338.13 697.672 2334.56 697.904 2330.99C698.907 2312.4 719.575 2299.62 731.821 2287.12C749.869 2268.55 757.18 2244.03 749.027 2218.99C747.938 2215.62 746.634 2212.37 745.285 2209.29C736.12 2188.69 719.363 2172.05 699.74 2161.35C682.643 2152.05 659.267 2144.52 641.526 2155.18C619.017 2168.74 630.24 2200.59 622.478 2270.7C621.605 2279.35 620.382 2288.64 618.683 2298.34C613.868 2328.43 600.286 2356.71 597.163 2387.25C596.394 2394.84 596.958 2401.52 598.641 2407.42Z" fill="url(#paint11_linear)"/>
<rect width="1828.84" height="1435.64" transform="matrix(-0.0334836 0.237653 -0.237672 -0.0333463 409.214 2221.17)" fill="url(#pattern3)"/>
<path d="M344.079 2507.06L381.373 2242.36C312.853 2232.74 244.507 2224.08 176.157 2213.26C189.782 2236.71 184.539 2267.37 172.472 2291.84C142.328 2352.86 81.6574 2412.07 100.08 2486.67C109.857 2526.52 141.559 2557.13 181.795 2564.31C232.208 2573.54 288.43 2554.65 327.383 2522.88C333.322 2517.86 338.96 2512.8 344.079 2507.06Z" fill="url(#paint12_linear)"/>
<path d="M-46.0354 797.975L-182.791 941.622C-145.717 976.877 -108.153 1011.87 -71.5619 1047.63C-69.583 1027.51 -53.37 1011.5 -35.3832 1002.01C9.02453 978.233 71.2607 968.508 92.382 915.576C103.706 887.419 97.7025 855.356 76.456 833.46C49.9976 806.366 8.02041 793.286 -29.3567 795.702C-34.9224 796.212 -40.482 796.97 -46.0354 797.975Z" stroke="#B172C4" stroke-width="0.5" stroke-miterlimit="10"/>
<rect width="1117.82" height="700.829" transform="matrix(-1.37431e-08 0.24 -0.24 0.000138571 325.194 881.633)" fill="url(#pattern4)"/>
<path opacity="0.3" d="M747.259 849.072C741.853 848.528 685.037 840.929 658.343 790.045C640.257 755.716 638.921 706.73 666.811 674.749C680.277 659.34 696.687 652.212 707.042 648.886L747.259 849.072Z" fill="url(#paint13_linear)"/>
<path opacity="0.3" d="M1485.26 1398.07C1479.85 1397.53 1423.04 1389.93 1396.34 1339.04C1378.26 1304.72 1376.92 1255.73 1404.81 1223.75C1418.28 1208.34 1434.69 1201.21 1445.04 1197.89L1485.26 1398.07Z" fill="url(#paint14_linear)"/>
<path opacity="0.3" d="M-14.5987 795.954L-110.762 896.964L-130.452 922.728L-66.3338 983.699C-59.1876 976.955 -51.5458 970.199 -44.0311 963.322C-24.2715 945.362 -5.98865 922.854 4.67856 898.182C15.4604 873.135 16.843 843.986 3.83842 819.531C-0.976346 810.359 -7.2408 802.709 -14.5987 795.954Z" fill="url(#paint15_linear)"/>
<path d="M68.3733 762.67C70.3749 760.568 70.2922 757.242 68.1886 755.242C66.0849 753.241 62.757 753.324 60.7553 755.426C58.7537 757.529 58.8364 760.855 60.9401 762.855C63.0437 764.856 66.3717 764.773 68.3733 762.67Z" stroke="url(#paint16_linear)" stroke-width="0.75" stroke-miterlimit="10"/>
<path d="M152.812 1142.28C154.546 1140.46 154.475 1137.58 152.652 1135.85C150.828 1134.11 147.944 1134.18 146.209 1136.01C144.475 1137.83 144.546 1140.71 146.369 1142.44C148.193 1144.18 151.077 1144.11 152.812 1142.28Z" stroke="url(#paint17_linear)" stroke-width="0.75" stroke-miterlimit="10"/>
<path d="M877.434 1223.46C879.169 1221.64 879.098 1218.76 877.274 1217.03C875.451 1215.29 872.567 1215.36 870.832 1217.19C869.097 1219.01 869.169 1221.89 870.992 1223.62C872.815 1225.36 875.7 1225.29 877.434 1223.46Z" stroke="url(#paint18_linear)" stroke-width="0.75" stroke-miterlimit="10"/>
<path d="M1403.55 2711.14C1413.63 2722.05 1425.69 2731.17 1439.25 2738.02C1443.34 2740.02 1447.59 2741.86 1452 2743.54C1451.53 2703.52 1450.9 2663.5 1450.43 2623.48C1449.93 2586.09 1449.44 2548.86 1448.94 2511.46C1444.99 2513.07 1441.04 2514.84 1437.25 2516.77C1424.72 2523.22 1413.65 2531.82 1404.21 2541.74C1383.84 2563.37 1371.45 2592.13 1370.36 2622.78C1370.34 2624.91 1370.32 2626.88 1370.3 2629.01C1371.02 2660.02 1383.23 2689.15 1403.55 2711.14Z" fill="url(#paint19_linear)"/>
<path d="M1396.86 2440.82C1399.58 2440.84 1401.8 2438.66 1401.83 2435.94C1401.85 2433.22 1399.67 2431 1396.95 2430.98C1394.23 2430.95 1392.01 2433.14 1391.98 2435.85C1391.96 2438.57 1394.14 2440.79 1396.86 2440.82Z" stroke="url(#paint20_linear)" stroke-width="0.75" stroke-miterlimit="10"/>
<path d="M1191.1 2741.26C1193.46 2741.28 1195.39 2739.39 1195.41 2737.04C1195.43 2734.68 1193.53 2732.76 1191.18 2732.73C1188.82 2732.71 1186.9 2734.61 1186.87 2736.96C1186.85 2739.32 1188.75 2741.24 1191.1 2741.26Z" stroke="url(#paint21_linear)" stroke-width="0.75" stroke-miterlimit="10"/>
<path d="M1197.29 2446.46C1199.28 2446.47 1200.91 2444.87 1200.93 2442.88C1200.94 2440.89 1199.34 2439.26 1197.35 2439.24C1195.36 2439.22 1193.73 2440.82 1193.71 2442.82C1193.69 2444.81 1195.29 2446.44 1197.29 2446.46Z" stroke="white" stroke-width="0.75" stroke-miterlimit="10"/>
<path d="M1120.13 2789.46C1123.39 2789.49 1126.05 2786.87 1126.08 2783.61C1126.11 2780.35 1123.49 2777.68 1120.23 2777.65C1116.97 2777.62 1114.3 2780.24 1114.27 2783.5C1114.24 2786.76 1116.86 2789.43 1120.13 2789.46Z" stroke="white" stroke-width="0.75" stroke-miterlimit="10"/>
<path opacity="0.3" d="M-119.103 2659.57C-106.715 2661.35 23.3061 2684.38 79.8663 2804.11C118.202 2884.89 116.587 2997.78 49.3436 3068.68C16.8799 3102.83 -21.5667 3117.64 -45.7149 3124.28L-119.103 2659.57Z" fill="url(#paint22_linear)"/>
<!-- <rect y="5012.87" width="1440" height="687.784" fill="#351553"/> -->
<path d="M48.7314 3899.16C38.5585 3888.34 26.4166 3879.32 12.798 3872.59C8.69604 3870.63 4.42998 3868.82 -0.00016822 3867.18C0.820225 3907.2 1.80471 3947.21 2.6251 3987.22C3.4455 4024.61 4.26589 4061.84 5.08628 4099.23C9.02419 4097.59 12.9621 4095.78 16.7359 4093.81C29.2059 4087.25 40.1992 4078.56 49.5518 4068.56C69.7335 4046.75 81.8754 4017.89 82.6958 3987.22C82.6958 3985.09 82.6958 3983.12 82.6958 3980.99C81.7113 3950 69.2413 3920.97 48.7314 3899.16Z" fill="url(#paint23_linear)"/>
<path d="M57.7805 4169.41C55.062 4169.41 52.8581 4171.61 52.8581 4174.33C52.8581 4177.05 55.062 4179.25 57.7805 4179.25C60.4991 4179.25 62.7029 4177.05 62.7029 4174.33C62.7029 4171.61 60.4991 4169.41 57.7805 4169.41Z" stroke="url(#paint24_linear)" stroke-width="0.75" stroke-miterlimit="10"/> -->
<path d="M260.91 3867.18C258.554 3867.18 256.644 3869.09 256.644 3871.45C256.644 3873.8 258.554 3875.71 260.91 3875.71C263.267 3875.71 265.177 3873.8 265.177 3871.45C265.177 3869.09 263.267 3867.18 260.91 3867.18Z" stroke="url(#paint25_linear)" stroke-width="0.75" stroke-miterlimit="10"/>
<path d="M257.301 4162.03C255.307 4162.03 253.691 4163.65 253.691 4165.64C253.691 4167.63 255.307 4169.25 257.301 4169.25C259.294 4169.25 260.91 4167.63 260.91 4165.64C260.91 4163.65 259.294 4162.03 257.301 4162.03Z" stroke="white" stroke-width="0.75" stroke-miterlimit="10"/>
<path d="M331.465 3818.37C328.203 3818.37 325.559 3821.01 325.559 3824.27C325.559 3827.53 328.203 3830.18 331.465 3830.18C334.728 3830.18 337.372 3827.53 337.372 3824.27C337.372 3821.01 334.728 3818.37 331.465 3818.37Z" stroke="white" stroke-width="0.75" stroke-miterlimit="10"/>
<!-- <g clip-path="url(#clip2)">
<path fill-rule="evenodd" clip-rule="evenodd" d="M82.1972 5118.58H96.9992V5109.85L89.1221 5099.59L97 5089.03V5080.66L82.2658 5080.67L74.6872 5090.42L78.1398 5095.02L85.0214 5086.34H92.0655L81.9242 5099.59L91.9652 5112.83H85.1212L78.1429 5104.18L74.6872 5108.84L82.1972 5118.58ZM57.0764 5112.83H64.3637L74.6872 5099.63L64.226 5086.34H57L67.382 5099.64L57.0764 5112.83Z" fill="white"/>
</g> -->
<!-- <line x1="720.25" y1="5138.16" x2="720.25" y2="5583.13" stroke="white" stroke-width="0.5"/> -->
<g clip-path="url(#clip3)">
<path d="M1373.97 4946.62L1373.97 4930.09L1378.01 4934.26L1379.59 4932.62L1372.84 4925.62L1366.09 4932.62L1367.68 4934.26L1371.72 4930.09L1371.72 4946.62L1373.97 4946.62Z" fill="white"/>
</g>
<circle cx="400.139" cy="4465.16" r="84.2382" fill="url(#pattern6)"/>
<g filter="url(#filter0_d)">
<rect x="485.78" y="135.848" width="1246" height="935" fill="url(#pattern7)"/>
</g> -->
<rect width="1828.84" height="1435.64" transform="matrix(-0.234628 0.0504969 -0.0506324 -0.234598 1627.92 4062.82)" fill="url(#pattern8)"/>
<path d="M1448.89 4279.34L1777.04 4208.72C1758.71 4123.8 1739.34 4039.49 1722.5 3954.24C1700.75 3980.45 1662.35 3987.55 1628.28 3983.92C1543.31 3974.8 1447.26 3928.92 1367.3 3982.93C1324.57 4011.7 1302.21 4062.31 1311.16 4112.85C1322.1 4176.26 1368.71 4234.35 1423.02 4266.51C1431.5 4271.34 1439.91 4275.8 1448.89 4279.34Z" fill="url(#paint26_linear)"/>
</g>
<defs>
<linearGradient id="paint0_linear" x1="95.4999" y1="51.6576" x2="95.4999" y2="107.546" gradientUnits="userSpaceOnUse">
<stop stop-color="#5557FE"/>
<stop offset="1" stop-color="#9555FE"/>
</linearGradient>
<linearGradient id="paint1_linear" x1="1205.14" y1="-68.583" x2="1291.04" y2="714.287" gradientUnits="userSpaceOnUse">
<stop stop-color="white"/>
<stop offset="0.1672" stop-color="#DFC5E7"/>
<stop offset="0.3671" stop-color="#BC87CC"/>
<stop offset="0.5501" stop-color="#A155B8"/>
<stop offset="0.7095" stop-color="#8D32A9"/>
<stop offset="0.8392" stop-color="#811C9F"/>
<stop offset="0.9231" stop-color="#7D149C"/>
</linearGradient>
<linearGradient id="paint2_linear" x1="1032.51" y1="647.821" x2="969.112" y2="-30.8041" gradientUnits="userSpaceOnUse">
<stop stop-color="white"/>
<stop offset="0.1672" stop-color="#DFC5E7"/>
<stop offset="0.3671" stop-color="#BC87CC"/>
<stop offset="0.5501" stop-color="#A155B8"/>
<stop offset="0.7095" stop-color="#8D32A9"/>
<stop offset="0.8392" stop-color="#811C9F"/>
<stop offset="0.9231" stop-color="#7D149C"/>
</linearGradient>
<linearGradient id="paint3_linear" x1="1617.8" y1="159.566" x2="1296.32" y2="292.986" gradientUnits="userSpaceOnUse">
<stop stop-color="#291546"/>
<stop offset="0.8276" stop-color="#7D149C"/>
</linearGradient>
<linearGradient id="paint4_linear" x1="1523.34" y1="274.98" x2="1384.41" y2="242.309" gradientUnits="userSpaceOnUse">
<stop stop-opacity="0"/>
<stop offset="0.1778" stop-color="#22052A" stop-opacity="0.1988"/>
<stop offset="0.4119" stop-color="#490C5B" stop-opacity="0.4607"/>
<stop offset="0.6178" stop-color="#65107E" stop-opacity="0.691"/>
<stop offset="0.7856" stop-color="#771394" stop-opacity="0.8787"/>
<stop offset="0.8941" stop-color="#7D149C"/>
</linearGradient>
<linearGradient id="paint5_linear" x1="732.31" y1="68.7659" x2="732.31" y2="40.9036" gradientUnits="userSpaceOnUse">
<stop stop-color="#291546"/>
<stop offset="0.2205" stop-color="#351553"/>
<stop offset="0.6224" stop-color="#551473"/>
<stop offset="1" stop-color="#791498"/>
</linearGradient>
<linearGradient id="paint6_linear" x1="-33.5045" y1="371.472" x2="301.976" y2="334.49" gradientUnits="userSpaceOnUse">
<stop stop-color="white"/>
<stop offset="0.1672" stop-color="#DFC5E7"/>
<stop offset="0.3671" stop-color="#BC87CC"/>
<stop offset="0.5501" stop-color="#A155B8"/>
<stop offset="0.7095" stop-color="#8D32A9"/>
<stop offset="0.8392" stop-color="#811C9F"/>
<stop offset="0.9231" stop-color="#7D149C"/>
</linearGradient>
<linearGradient id="paint7_linear" x1="-36.8195" y1="1008.94" x2="206.802" y2="1170.16" gradientUnits="userSpaceOnUse">
<stop stop-color="white"/>
<stop offset="0.1672" stop-color="#DFC5E7"/>
<stop offset="0.3671" stop-color="#BC87CC"/>
<stop offset="0.5501" stop-color="#A155B8"/>
<stop offset="0.7095" stop-color="#8D32A9"/>
<stop offset="0.8392" stop-color="#811C9F"/>
<stop offset="0.9231" stop-color="#7D149C"/>
</linearGradient>
<linearGradient id="paint8_linear" x1="-83.7438" y1="894.956" x2="143.194" y2="931.897" gradientUnits="userSpaceOnUse">
<stop stop-color="#291546"/>
<stop offset="0.8276" stop-color="#7D149C"/>
</linearGradient>
<linearGradient id="paint9_linear" x1="-97.9796" y1="861.507" x2="20.6277" y2="930.062" gradientUnits="userSpaceOnUse">
<stop stop-color="#291546"/>
<stop offset="0.2205" stop-color="#351553"/>
<stop offset="0.6224" stop-color="#551473"/>
<stop offset="1" stop-color="#791498"/>
</linearGradient>
<linearGradient id="paint10_linear" x1="234.607" y1="2077.3" x2="-91.4563" y2="1870.72" gradientUnits="userSpaceOnUse">
<stop stop-color="white"/>
<stop offset="0.1672" stop-color="#DFC5E7"/>
<stop offset="0.3671" stop-color="#BC87CC"/>
<stop offset="0.5501" stop-color="#A155B8"/>
<stop offset="0.7095" stop-color="#8D32A9"/>
<stop offset="0.8392" stop-color="#811C9F"/>
<stop offset="0.9231" stop-color="#7D149C"/>
</linearGradient>
<linearGradient id="paint11_linear" x1="652.586" y1="2293.84" x2="940.55" y2="2343.05" gradientUnits="userSpaceOnUse">
<stop stop-color="white"/>
<stop offset="0.1672" stop-color="#DFC5E7"/>
<stop offset="0.3671" stop-color="#BC87CC"/>
<stop offset="0.5501" stop-color="#A155B8"/>
<stop offset="0.7095" stop-color="#8D32A9"/>
<stop offset="0.8392" stop-color="#811C9F"/>
<stop offset="0.9231" stop-color="#7D149C"/>
</linearGradient>
<linearGradient id="paint12_linear" x1="375.502" y1="2372.51" x2="138.287" y2="2395.54" gradientUnits="userSpaceOnUse">
<stop stop-color="#291546"/>
<stop offset="0.2205" stop-color="#351553"/>
<stop offset="0.6224" stop-color="#551473"/>
<stop offset="1" stop-color="#791498"/>
</linearGradient>
<linearGradient id="paint13_linear" x1="694.101" y1="749.924" x2="632.941" y2="751.805" gradientUnits="userSpaceOnUse">
<stop stop-opacity="0"/>
<stop offset="0.1778" stop-color="#22052A" stop-opacity="0.1988"/>
<stop offset="0.4119" stop-color="#490C5B" stop-opacity="0.4607"/>
<stop offset="0.6178" stop-color="#65107E" stop-opacity="0.691"/>
<stop offset="0.7856" stop-color="#771394" stop-opacity="0.8787"/>
<stop offset="0.8941" stop-color="#7D149C"/>
</linearGradient>
<linearGradient id="paint14_linear" x1="1432.1" y1="1298.92" x2="1370.94" y2="1300.8" gradientUnits="userSpaceOnUse">
<stop stop-opacity="0"/>
<stop offset="0.1778" stop-color="#22052A" stop-opacity="0.1988"/>
<stop offset="0.4119" stop-color="#490C5B" stop-opacity="0.4607"/>
<stop offset="0.6178" stop-color="#65107E" stop-opacity="0.691"/>
<stop offset="0.7856" stop-color="#771394" stop-opacity="0.8787"/>
<stop offset="0.8941" stop-color="#7D149C"/>
</linearGradient>
<linearGradient id="paint15_linear" x1="-69.7598" y1="875.907" x2="-21.4732" y2="898.888" gradientUnits="userSpaceOnUse">
<stop stop-opacity="0"/>
<stop offset="0.1778" stop-color="#22052A" stop-opacity="0.1988"/>
<stop offset="0.4119" stop-color="#490C5B" stop-opacity="0.4607"/>
<stop offset="0.6178" stop-color="#65107E" stop-opacity="0.691"/>
<stop offset="0.7856" stop-color="#771394" stop-opacity="0.8787"/>
<stop offset="0.8941" stop-color="#7D149C"/>
</linearGradient>
<linearGradient id="paint16_linear" x1="60.4612" y1="763.455" x2="68.6898" y2="754.801" gradientUnits="userSpaceOnUse">
<stop stop-color="#291546"/>
<stop offset="0.2205" stop-color="#351553"/>
<stop offset="0.6224" stop-color="#551473"/>
<stop offset="1" stop-color="#791498"/>
</linearGradient>
<linearGradient id="paint17_linear" x1="145.938" y1="1142.98" x2="153.094" y2="1135.45" gradientUnits="userSpaceOnUse">
<stop stop-color="#291546"/>
<stop offset="0.2205" stop-color="#351553"/>
<stop offset="0.6224" stop-color="#551473"/>
<stop offset="1" stop-color="#791498"/>
</linearGradient>
<linearGradient id="paint18_linear" x1="870.56" y1="1224.16" x2="877.717" y2="1216.63" gradientUnits="userSpaceOnUse">
<stop stop-color="#291546"/>
<stop offset="0.2205" stop-color="#351553"/>
<stop offset="0.6224" stop-color="#551473"/>
<stop offset="1" stop-color="#791498"/>
</linearGradient>
<linearGradient id="paint19_linear" x1="1462.65" y1="2626.14" x2="1148.15" y2="2657.87" gradientUnits="userSpaceOnUse">
<stop stop-color="white"/>
<stop offset="0.1672" stop-color="#DFC5E7"/>
<stop offset="0.3671" stop-color="#BC87CC"/>
<stop offset="0.5501" stop-color="#A155B8"/>
<stop offset="0.7095" stop-color="#8D32A9"/>
<stop offset="0.8392" stop-color="#811C9F"/>
<stop offset="0.9231" stop-color="#7D149C"/>
</linearGradient>
<linearGradient id="paint20_linear" x1="1391.27" y1="2435.9" x2="1402.45" y2="2436" gradientUnits="userSpaceOnUse">
<stop stop-color="#291546"/>
<stop offset="0.2205" stop-color="#351553"/>
<stop offset="0.6224" stop-color="#551473"/>
<stop offset="1" stop-color="#791498"/>
</linearGradient>
<linearGradient id="paint21_linear" x1="1186.23" y1="2737" x2="1195.96" y2="2737.08" gradientUnits="userSpaceOnUse">
<stop stop-color="#291546"/>
<stop offset="0.2205" stop-color="#351553"/>
<stop offset="0.6224" stop-color="#551473"/>
<stop offset="1" stop-color="#791498"/>
</linearGradient>
<linearGradient id="paint22_linear" x1="-6.24329" y1="2892.97" x2="134.685" y2="2894.5" gradientUnits="userSpaceOnUse">
<stop stop-opacity="0"/>
<stop offset="0.1778" stop-color="#22052A" stop-opacity="0.1988"/>
<stop offset="0.4119" stop-color="#490C5B" stop-opacity="0.4607"/>
<stop offset="0.6178" stop-color="#65107E" stop-opacity="0.691"/>
<stop offset="0.7856" stop-color="#771394" stop-opacity="0.8787"/>
<stop offset="0.8941" stop-color="#7D149C"/>
</linearGradient>
<linearGradient id="paint23_linear" x1="-9.61638" y1="3984.67" x2="304.592" y2="3950.19" gradientUnits="userSpaceOnUse">
<stop stop-color="white"/>
<stop offset="0.1672" stop-color="#DFC5E7"/>
<stop offset="0.3671" stop-color="#BC87CC"/>
<stop offset="0.5501" stop-color="#A155B8"/>
<stop offset="0.7095" stop-color="#8D32A9"/>
<stop offset="0.8392" stop-color="#811C9F"/>
<stop offset="0.9231" stop-color="#7D149C"/>
</linearGradient>
<linearGradient id="paint24_linear" x1="63.4186" y1="4174.28" x2="52.236" y2="4174.28" gradientUnits="userSpaceOnUse">
<stop stop-color="#291546"/>
<stop offset="0.2205" stop-color="#351553"/>
<stop offset="0.6224" stop-color="#551473"/>
<stop offset="1" stop-color="#791498"/>
</linearGradient>
<linearGradient id="paint25_linear" x1="265.818" y1="3871.4" x2="256.093" y2="3871.4" gradientUnits="userSpaceOnUse">
<stop stop-color="#291546"/>
<stop offset="0.2205" stop-color="#351553"/>
<stop offset="0.6224" stop-color="#551473"/>
<stop offset="1" stop-color="#791498"/>
</linearGradient>
<linearGradient id="paint26_linear" x1="1621.08" y1="4258.14" x2="1491.26" y2="3988.51" gradientUnits="userSpaceOnUse">
<stop stop-color="#291546"/>
<stop offset="0.2205" stop-color="#351553"/>
<stop offset="0.6224" stop-color="#551473"/>
<stop offset="1" stop-color="#791498"/>
</linearGradient>
</defs>
</svg>


