<svg width="45" height="35" viewBox="0 0 45 35" fill="none" xmlns="http://www.w3.org/2000/svg">
<path d="M15.1396 13.5H9.63957V5.65772H5.9729V13.5H0.4729V18.7281H5.9729V26.5704H9.63957V18.7281H15.1396V13.5ZM33.4729 16.114C36.5162 16.114 38.9546 12.6112 38.9546 8.2718C38.9546 3.93243 36.5162 0.429565 33.4729 0.429565C32.8862 0.429565 32.3179 0.560269 31.8046 0.795536C32.8496 2.91294 33.4546 5.47474 33.4546 8.2718C33.4546 11.0689 32.8312 13.6045 31.8046 15.7481C32.3179 15.9833 32.8862 16.114 33.4729 16.114ZM24.3062 16.114C27.3496 16.114 29.7879 12.6112 29.7879 8.2718C29.7879 3.93243 27.3496 0.429565 24.3062 0.429565C21.2629 0.429565 18.8062 3.93243 18.8062 8.2718C18.8062 12.6112 21.2629 16.114 24.3062 16.114ZM36.4429 21.7605C37.9646 23.6687 38.9729 26.0998 38.9729 29.1844V34.4126H44.4729V29.1844C44.4729 25.1588 40.1279 22.6754 36.4429 21.7605ZM24.3062 21.3422C20.6396 21.3422 13.3062 23.9563 13.3062 29.1844V34.4126H35.3062V29.1844C35.3062 23.9563 27.9729 21.3422 24.3062 21.3422Z" fill="#5557FE"/>
</svg>
