<svg width="21" height="21" viewBox="0 0 21 21" fill="none" xmlns="http://www.w3.org/2000/svg">
<path d="M17.2927 6.72515H3.95939C3.03892 6.72515 2.29272 7.47134 2.29272 8.39182V16.7251C2.29272 17.6456 3.03892 18.3918 3.95939 18.3918H17.2927C18.2132 18.3918 18.9594 17.6456 18.9594 16.7251V8.39182C18.9594 7.47134 18.2132 6.72515 17.2927 6.72515Z" stroke="#6D6D72" stroke-width="1.5" stroke-linecap="round" stroke-linejoin="round"/>
<path d="M13.9594 18.3918V5.05848C13.9594 4.61645 13.7838 4.19253 13.4712 3.87997C13.1587 3.56741 12.7348 3.39182 12.2927 3.39182H8.95939C8.51736 3.39182 8.09344 3.56741 7.78088 3.87997C7.46832 4.19253 7.29272 4.61645 7.29272 5.05848V18.3918" stroke="#6D6D72" stroke-width="1.5" stroke-linecap="round" stroke-linejoin="round"/>
</svg>
