<svg width="300" height="300" viewBox="0 0 300 300" fill="none" xmlns="http://www.w3.org/2000/svg">
<path fill-rule="evenodd" clip-rule="evenodd" d="M227.373 239.417H72.6262C65.9764 239.417 60.577 234.018 60.577 227.368V72.6205C60.577 65.9707 65.9758 60.5719 72.6262 60.5713H227.373C234.024 60.5719 239.423 65.9707 239.423 72.6205V227.368C239.423 234.018 234.024 239.417 227.373 239.417ZM225.529 120.824H74.1064V213.534C74.1064 216.717 75.3706 219.769 77.6212 222.02C79.8712 224.27 82.9234 225.534 86.1064 225.534H213.529C216.712 225.534 219.764 224.27 222.015 222.02C224.265 219.769 225.529 216.717 225.529 213.534V120.824ZM160.819 183.39V189.296H138.452V183.39H160.819ZM168.673 157.062C172.037 157.062 174.769 159.793 174.769 163.158C174.769 166.523 172.037 169.254 168.673 169.254C165.308 169.254 162.576 166.523 162.576 163.158C162.576 159.793 165.308 157.062 168.673 157.062ZM130.962 157.062C134.327 157.062 137.059 159.793 137.059 163.158C137.059 166.523 134.327 169.254 130.962 169.254C127.598 169.254 124.866 166.523 124.866 163.158C124.866 159.793 127.598 157.062 130.962 157.062ZM223.409 106.933H76.2262C75.0562 106.933 74.1064 107.884 74.1064 109.054V113.294C74.1064 114.464 75.0562 115.414 76.2262 115.414H223.409C224.579 115.414 225.529 114.464 225.529 113.294V109.054C225.529 107.884 224.579 106.933 223.409 106.933ZM180.855 92.9245H76.2262C75.0562 92.9251 74.1064 93.8749 74.1064 95.0449V99.2851C74.1064 100.455 75.0562 101.405 76.2262 101.405H180.855C182.025 101.405 182.975 100.455 182.975 99.2851V95.0449C182.975 93.8749 182.025 92.9251 180.855 92.9245ZM220.223 72.2593C223.152 72.2593 225.529 74.6371 225.529 77.5651C225.529 80.4937 223.152 82.8709 220.223 82.8709C217.295 82.8709 214.917 80.4937 214.917 77.5651C214.917 74.6371 217.295 72.2593 220.223 72.2593ZM205.01 72.2593C207.938 72.2593 210.315 74.6371 210.315 77.5651C210.315 80.4937 207.938 82.8709 205.01 82.8709C202.081 82.8709 199.704 80.4937 199.704 77.5651C199.704 74.6371 202.081 72.2593 205.01 72.2593ZM188.281 72.2593C191.21 72.2593 193.587 74.6371 193.587 77.5651C193.587 80.4937 191.21 82.8709 188.281 82.8709C185.352 82.8709 182.975 80.4937 182.975 77.5651C182.975 74.6371 185.352 72.2593 188.281 72.2593Z" fill="white"/>
<path fill-rule="evenodd" clip-rule="evenodd" d="M54.0721 259.407L60.5776 255.98L58.5709 252.17L52.7495 249.514L53.7851 243.084L51.86 239.429L45.3877 242.846L44.2987 248.856L46.8729 250.063L47.9026 244.683L50.9985 243.053L49.5861 251.181L57.0437 254.637L54.0358 256.221L48.98 254.06L48.5324 256.894L54.0721 259.407ZM41.7103 262.713L44.9131 261.026L46.414 252.872L38.7632 249.497L35.5875 251.17L43.2057 254.567L41.7103 262.713Z" fill="white"/>
<path fill-rule="evenodd" clip-rule="evenodd" d="M207.095 36.6032L213.083 40.8699L215.582 37.363L215.333 30.9691L221.541 28.999L223.939 25.6348L217.974 21.3934L212.117 23.1265L212.198 25.9686L217.465 24.4662L220.315 26.4967L212.421 28.8944L212.692 37.1095L209.923 35.1367L209.577 29.6495L206.845 30.5252L207.095 36.6032ZM198.578 27.053L201.526 29.1535L209.483 26.8232L209.053 18.4721L206.129 16.3893L206.525 24.7215L198.578 27.053Z" fill="white"/>
<path d="M43.0407 229.255C44.9033 229.255 46.4133 227.745 46.4133 225.882C46.4133 224.02 44.9033 222.51 43.0407 222.51C41.1781 222.51 39.6681 224.02 39.6681 225.882C39.6681 227.745 41.1781 229.255 43.0407 229.255Z" stroke="white" stroke-width="1.5" stroke-miterlimit="1.5" stroke-linecap="round" stroke-linejoin="round"/>
<path d="M55.6326 44.2452C57.4953 44.2452 59.0052 42.7353 59.0052 40.8726C59.0052 39.01 57.4953 37.5 55.6326 37.5C53.77 37.5 52.26 39.01 52.26 40.8726C52.26 42.7353 53.77 44.2452 55.6326 44.2452Z" stroke="white" stroke-miterlimit="1.5" stroke-linecap="round" stroke-linejoin="round"/>
<path d="M259.048 236.067C260.911 236.067 262.421 234.557 262.421 232.694C262.421 230.831 260.911 229.321 259.048 229.321C257.186 229.321 255.676 230.831 255.676 232.694C255.676 234.557 257.186 236.067 259.048 236.067Z" stroke="white" stroke-miterlimit="1.5" stroke-linecap="round" stroke-linejoin="round"/>
<path d="M247.719 54.7087L262.925 41.6748" stroke="white" stroke-width="4" stroke-miterlimit="1.5" stroke-linecap="round" stroke-linejoin="round"/>
<path d="M249.542 67.6833L269.554 66.8701" stroke="white" stroke-width="4" stroke-miterlimit="1.5" stroke-linecap="round" stroke-linejoin="round"/>
<path d="M236.95 48.1916L241.896 28.7842" stroke="white" stroke-width="4" stroke-miterlimit="1.5" stroke-linecap="round" stroke-linejoin="round"/>
<path d="M249.37 242.796L255.561 249.762" stroke="white" stroke-width="4" stroke-miterlimit="1.5" stroke-linecap="round" stroke-linejoin="round"/>
<path d="M255.676 242.87L249.253 249.623" stroke="white" stroke-width="4" stroke-miterlimit="1.5" stroke-linecap="round" stroke-linejoin="round"/>
<path d="M45.9526 57.3479L52.1439 64.3136" stroke="white" stroke-width="4" stroke-miterlimit="1.5" stroke-linecap="round" stroke-linejoin="round"/>
<path d="M52.2595 57.4219L45.8364 64.1745" stroke="white" stroke-width="4" stroke-miterlimit="1.5" stroke-linecap="round" stroke-linejoin="round"/>
</svg>
