<svg width="609" height="73" viewBox="0 0 609 73" fill="none" xmlns="http://www.w3.org/2000/svg">
<path d="M1.41626 71H0.41626V72H1.41626V71ZM1.41626 2.75V1.75H0.41626V2.75H1.41626ZM39.6663 6.875L39.1701 7.74325L39.1744 7.74567L39.6663 6.875ZM50.9163 18.4531L50.0354 18.9266L50.039 18.9331L50.9163 18.4531ZM55.0413 35.1875H56.0413L56.0412 35.1824L55.0413 35.1875ZM51.0569 55.1562L50.175 54.6848L50.1739 54.6868L51.0569 55.1562ZM39.9006 66.7812L40.4035 67.6456L40.4052 67.6446L39.9006 66.7812ZM23.8694 71V72L23.8747 72L23.8694 71ZM17.8694 15.4531V14.4531H16.8694V15.4531H17.8694ZM17.8694 58.3438H16.8694V59.3438H17.8694V58.3438ZM34.4631 53.3281L35.2605 53.9317L35.2631 53.9281L34.4631 53.3281ZM2.41626 71V2.75H0.41626V71H2.41626ZM1.41626 3.75H23.4006V1.75H1.41626V3.75ZM23.4006 3.75C29.2736 3.75 34.5219 5.08709 39.1701 7.74324L40.1624 6.00676C35.1857 3.16291 29.5901 1.75 23.4006 1.75V3.75ZM39.1744 7.74567C43.8177 10.3688 47.4349 14.0883 50.0354 18.9266L51.7971 17.9797C49.0226 12.8179 45.1398 8.81868 40.1581 6.00433L39.1744 7.74567ZM50.039 18.9331C52.6708 23.743 54.0108 29.1554 54.0413 35.1926L56.0412 35.1824C56.0092 28.8446 54.5992 23.1007 51.7935 17.9731L50.039 18.9331ZM54.0413 35.1875V38.3281H56.0413V35.1875H54.0413ZM54.0413 38.3281C54.0413 44.432 52.7455 49.8764 50.175 54.6848L51.9388 55.6277C54.6808 50.4986 56.0413 44.7243 56.0413 38.3281H54.0413ZM50.1739 54.6868C47.6357 59.461 44.0478 63.1993 39.3961 65.9179L40.4052 67.6446C45.3785 64.7382 49.228 60.7265 51.9399 55.6257L50.1739 54.6868ZM39.3978 65.9169C34.778 68.6042 29.6078 69.9696 23.8641 70L23.8747 72C29.9435 71.9679 35.4608 70.5208 40.4035 67.6456L39.3978 65.9169ZM23.8694 70H1.41626V72H23.8694V70ZM16.8694 15.4531V58.3438H18.8694V15.4531H16.8694ZM17.8694 59.3438H23.5881V57.3438H17.8694V59.3438ZM23.5881 59.3438C28.5752 59.3438 32.5146 57.5589 35.2604 53.9317L33.6658 52.7246C31.3491 55.7849 28.0386 57.3438 23.5881 57.3438V59.3438ZM35.2631 53.9281C37.9795 50.3063 39.26 45.0543 39.26 38.3281H37.26C37.26 44.8519 36.0093 49.6 33.6631 52.7281L35.2631 53.9281ZM39.26 38.3281V35.375H37.26V38.3281H39.26ZM39.26 35.375C39.26 28.6798 37.9794 23.4569 35.2604 19.8652L33.6658 21.0723C36.0093 24.1681 37.26 28.8827 37.26 35.375H39.26ZM35.2604 19.8652C32.5092 16.2308 28.5024 14.4531 23.4006 14.4531V16.4531C27.9863 16.4531 31.3546 18.0192 33.6658 21.0723L35.2604 19.8652ZM23.4006 14.4531H17.8694V16.4531H23.4006V14.4531ZM116.367 42.0781V43.0781H117.367V42.0781H116.367ZM90.4919 42.0781V41.0781H89.4919V42.0781H90.4919ZM90.4919 58.3438H89.4919V59.3438H90.4919V58.3438ZM121.054 58.3438H122.054V57.3438H121.054V58.3438ZM121.054 71V72H122.054V71H121.054ZM74.0388 71H73.0388V72H74.0388V71ZM74.0388 2.75V1.75H73.0388V2.75H74.0388ZM121.148 2.75H122.148V1.75H121.148V2.75ZM121.148 15.4531V16.4531H122.148V15.4531H121.148ZM90.4919 15.4531V14.4531H89.4919V15.4531H90.4919ZM90.4919 29.8438H89.4919V30.8438H90.4919V29.8438ZM116.367 29.8438H117.367V28.8438H116.367V29.8438ZM116.367 41.0781H90.4919V43.0781H116.367V41.0781ZM89.4919 42.0781V58.3438H91.4919V42.0781H89.4919ZM90.4919 59.3438H121.054V57.3438H90.4919V59.3438ZM120.054 58.3438V71H122.054V58.3438H120.054ZM121.054 70H74.0388V72H121.054V70ZM75.0388 71V2.75H73.0388V71H75.0388ZM74.0388 3.75H121.148V1.75H74.0388V3.75ZM120.148 2.75V15.4531H122.148V2.75H120.148ZM121.148 14.4531H90.4919V16.4531H121.148V14.4531ZM89.4919 15.4531V29.8438H91.4919V15.4531H89.4919ZM90.4919 30.8438H116.367V28.8438H90.4919V30.8438ZM115.367 29.8438V42.0781H117.367V29.8438H115.367ZM170.943 47.2344L170.32 48.0167L170.327 48.0222L170.943 47.2344ZM151.489 38.8906L151.932 37.9941L151.93 37.993L151.489 38.8906ZM141.505 11L140.71 10.3932L140.709 10.3945L141.505 11ZM150.88 4.25L151.248 5.17998L151.254 5.17748L150.88 4.25ZM177.646 4.4375L177.234 5.34888L177.237 5.3501L177.646 4.4375ZM186.739 11.9375L185.906 12.4904L185.909 12.4941L186.739 11.9375ZM189.974 23V24H190.974V23H189.974ZM173.568 23H172.568V24H173.568V23ZM170.989 16.5312L170.317 17.2718L170.324 17.2779L170.989 16.5312ZM157.114 16.2031L157.719 16.9996L157.721 16.9979L157.114 16.2031ZM157.396 25.9062L156.787 26.6999L156.796 26.7062L157.396 25.9062ZM167.286 30.3125L166.978 31.2637L166.983 31.2655L167.286 30.3125ZM178.911 35.1875L178.411 36.0535L178.412 36.0539L178.911 35.1875ZM149.661 68.9844L149.253 69.8972L149.26 69.9005L149.661 68.9844ZM139.536 60.8281L138.697 61.3723L138.703 61.3811L139.536 60.8281ZM136.161 48.875V47.875H135.161V48.875H136.161ZM152.661 48.875H153.661V47.875H152.661V48.875ZM155.474 56.9844L154.791 57.7154L154.798 57.7213L154.804 57.7271L155.474 56.9844ZM171.13 57.8281L171.725 58.632L171.727 58.63L171.13 57.8281ZM174.521 52.8594C174.521 50.1817 173.547 48.0011 171.558 46.4466L170.327 48.0222C171.776 49.1551 172.521 50.7246 172.521 52.8594H174.521ZM171.565 46.4521C169.733 44.9927 166.606 43.5576 162.308 42.1145L161.671 44.0105C165.936 45.4424 168.777 46.7886 170.32 48.0167L171.565 46.4521ZM162.308 42.1145C158.051 40.6851 154.596 39.3108 151.932 37.9941L151.046 39.7871C153.82 41.1579 157.366 42.5649 161.671 44.0105L162.308 42.1145ZM151.93 37.993C143.308 33.7581 139.224 28.0787 139.224 20.9844H137.224C137.224 29.0776 141.983 35.3356 151.049 39.7882L151.93 37.993ZM139.224 20.9844C139.224 17.4109 140.252 14.2979 142.301 11.6055L140.709 10.3945C138.383 13.4521 137.224 16.9953 137.224 20.9844H139.224ZM142.3 11.6068C144.389 8.86997 147.354 6.71936 151.248 5.17996L150.512 3.32004C146.344 4.96814 143.058 7.31753 140.71 10.3932L142.3 11.6068ZM151.254 5.17748C155.149 3.60731 159.551 2.8125 164.474 2.8125V0.8125C159.334 0.8125 154.673 1.64269 150.506 3.32252L151.254 5.17748ZM164.474 2.8125C169.26 2.8125 173.507 3.66562 177.234 5.34887L178.057 3.52613C174.034 1.70938 169.5 0.8125 164.474 0.8125V2.8125ZM177.237 5.3501C180.988 7.03057 183.865 9.41321 185.906 12.4904L187.573 11.3846C185.302 7.96179 182.116 5.34443 178.054 3.5249L177.237 5.3501ZM185.909 12.4941C187.946 15.536 188.974 19.0268 188.974 23H190.974C190.974 18.6607 189.845 14.7765 187.57 11.3809L185.909 12.4941ZM189.974 22H173.568V24H189.974V22ZM174.568 23C174.568 19.9981 173.63 17.5447 171.655 15.7846L170.324 17.2779C171.786 18.5803 172.568 20.4394 172.568 23H174.568ZM171.661 15.7907C169.743 14.0504 167.183 13.2344 164.099 13.2344V15.2344C166.827 15.2344 168.86 15.9496 170.317 17.2718L171.661 15.7907ZM164.099 13.2344C161.02 13.2344 158.454 13.9222 156.507 15.4084L157.721 16.9979C159.213 15.859 161.303 15.2344 164.099 15.2344V13.2344ZM156.51 15.4067C154.59 16.8639 153.583 18.7913 153.583 21.125H155.583C155.583 19.4587 156.263 18.1048 157.719 16.9996L156.51 15.4067ZM153.583 21.125C153.583 23.2869 154.758 25.1444 156.787 26.6999L158.004 25.1126C156.283 23.7931 155.583 22.4631 155.583 21.125H153.583ZM156.796 26.7062C158.812 28.2182 162.244 29.7277 166.978 31.2637L167.595 29.3613C162.891 27.8348 159.73 26.4068 157.996 25.1063L156.796 26.7062ZM166.983 31.2655C171.659 32.7519 175.462 34.3509 178.411 36.0535L179.411 34.3215C176.298 32.5241 172.351 30.8731 167.589 29.3595L166.983 31.2655ZM178.412 36.0539C185.529 40.1553 188.974 45.7106 188.974 52.7656H190.974C190.974 44.8832 187.043 38.7197 179.411 34.3211L178.412 36.0539ZM188.974 52.7656C188.974 58.4422 186.854 62.8259 182.62 66.0308L183.827 67.6255C188.593 64.0179 190.974 59.0266 190.974 52.7656H188.974ZM182.62 66.0308C178.35 69.2629 172.417 70.9375 164.708 70.9375V72.9375C172.687 72.9375 179.097 71.2059 183.827 67.6255L182.62 66.0308ZM164.708 70.9375C159.297 70.9375 154.421 69.9751 150.062 68.0682L149.26 69.9005C153.902 71.9312 159.056 72.9375 164.708 72.9375V70.9375ZM150.07 68.0716C145.741 66.1343 142.528 63.5276 140.369 60.2752L138.703 61.3811C141.107 65.0037 144.644 67.8344 149.253 69.8971L150.07 68.0716ZM140.375 60.2839C138.24 56.9915 137.161 53.1996 137.161 48.875H135.161C135.161 53.5504 136.333 57.7272 138.697 61.3723L140.375 60.2839ZM136.161 49.875H152.661V47.875H136.161V49.875ZM151.661 48.875C151.661 52.6882 152.64 55.7075 154.791 57.7154L156.156 56.2533C154.557 54.7612 153.661 52.3743 153.661 48.875H151.661ZM154.804 57.7271C156.982 59.6907 160.362 60.5625 164.708 60.5625V58.5625C160.554 58.5625 157.778 57.7156 156.143 56.2417L154.804 57.7271ZM164.708 60.5625C167.558 60.5625 169.934 59.9575 171.725 58.632L170.535 57.0243C169.201 58.0112 167.296 58.5625 164.708 58.5625V60.5625ZM171.727 58.63C173.594 57.2391 174.521 55.2748 174.521 52.8594H172.521C172.521 54.694 171.853 56.0422 170.533 57.0262L171.727 58.63ZM226.503 71V72H227.503V71H226.503ZM210.096 71H209.096V72H210.096V71ZM210.096 2.75V1.75H209.096V2.75H210.096ZM226.503 2.75H227.503V1.75H226.503V2.75ZM226.503 70H210.096V72H226.503V70ZM211.096 71V2.75H209.096V71H211.096ZM210.096 3.75H226.503V1.75H210.096V3.75ZM225.503 2.75V71H227.503V2.75H225.503ZM304.375 62.5625L305.118 63.2315L305.375 62.9462V62.5625H304.375ZM247.234 40.9062L246.234 40.9142L246.235 40.9294L246.235 40.9447L247.234 40.9062ZM247.188 35H246.187L246.188 35.0079L247.188 35ZM250.75 17.4219L251.653 17.8509L251.654 17.8488L250.75 17.4219ZM260.922 5.84375L261.443 6.69748L261.444 6.69644L260.922 5.84375ZM296.078 7.625L295.438 8.39324L295.444 8.39782L296.078 7.625ZM304.328 25.0156V26.0156H305.434L305.323 24.9149L304.328 25.0156ZM288.484 25.0156L287.495 25.1616L287.621 26.0156H288.484V25.0156ZM263.875 34.6719L262.875 34.6671V34.6719H263.875ZM267.344 54.1719L266.514 54.7301L266.52 54.7387L267.344 54.1719ZM287.922 56.4219L288.595 57.1613L288.922 56.8638V56.4219H287.922ZM287.922 45.8281H288.922V44.8281H287.922V45.8281ZM276.484 45.8281H275.484V46.8281H276.484V45.8281ZM276.484 34.5312V33.5312H275.484V34.5312H276.484ZM304.375 34.5312H305.375V33.5312H304.375V34.5312ZM303.632 61.8935C301.246 64.5446 297.706 66.7337 292.933 68.4163L293.598 70.3025C298.576 68.5475 302.442 66.2054 305.118 63.2315L303.632 61.8935ZM292.933 68.4163C288.177 70.093 282.948 70.9375 277.234 70.9375V72.9375C283.146 72.9375 288.604 72.0633 293.598 70.3025L292.933 68.4163ZM277.234 70.9375C268.517 70.9375 261.651 68.2791 256.528 63.0355L255.097 64.4333C260.661 70.1272 268.077 72.9375 277.234 72.9375V70.9375ZM256.528 63.0355C251.401 57.7889 248.602 50.4408 248.234 40.8678L246.235 40.9447C246.617 50.8717 249.536 58.7424 255.097 64.4333L256.528 63.0355ZM248.234 40.8983L248.187 34.9921L246.188 35.0079L246.234 40.9142L248.234 40.8983ZM248.188 35C248.188 28.3985 249.354 22.6913 251.653 17.8509L249.847 16.9928C247.396 22.1525 246.188 28.164 246.188 35H248.188ZM251.654 17.8488C253.953 12.9798 257.216 9.27524 261.443 6.69748L260.401 4.99002C255.815 7.78726 252.297 11.8015 249.846 16.995L251.654 17.8488ZM261.444 6.69644C265.707 4.08497 270.647 2.76562 276.297 2.76562V0.765625C270.322 0.765625 265.012 2.16503 260.399 4.99106L261.444 6.69644ZM276.297 2.76562C284.654 2.76562 290.99 4.6862 295.438 8.39322L296.718 6.85678C291.792 2.7513 284.94 0.765625 276.297 0.765625V2.76562ZM295.444 8.39782C299.907 12.0629 302.571 17.5858 303.333 25.1163L305.323 24.9149C304.523 17.008 301.687 10.9371 296.713 6.85218L295.444 8.39782ZM304.328 24.0156H288.484V26.0156H304.328V24.0156ZM289.474 24.8697C288.895 20.9453 287.616 17.9519 285.483 16.1037L284.173 17.6151C285.791 19.0168 286.949 21.4609 287.495 25.1616L289.474 24.8697ZM285.483 16.1037C283.367 14.2696 280.445 13.4219 276.859 13.4219V15.4219C280.149 15.4219 282.539 16.1992 284.173 17.6151L285.483 16.1037ZM276.859 13.4219C272.391 13.4219 268.888 15.3479 266.456 19.1311L268.138 20.2126C270.206 16.9958 273.078 15.4219 276.859 15.4219V13.4219ZM266.456 19.1311C264.06 22.8573 262.907 28.0752 262.875 34.6671L264.875 34.6767C264.906 28.2686 266.034 23.4864 268.138 20.2126L266.456 19.1311ZM262.875 34.6719V38.7969H264.875V34.6719H262.875ZM262.875 38.7969C262.875 45.6923 264.04 51.0523 266.514 54.73L268.173 53.6137C266.023 50.4165 264.875 45.5264 264.875 38.7969H262.875ZM266.52 54.7387C269.091 58.475 273.109 60.2812 278.359 60.2812V58.2812C273.61 58.2812 270.284 56.6813 268.168 53.605L266.52 54.7387ZM278.359 60.2812C282.766 60.2812 286.243 59.3032 288.595 57.1613L287.249 55.6824C285.414 57.3531 282.516 58.2812 278.359 58.2812V60.2812ZM288.922 56.4219V45.8281H286.922V56.4219H288.922ZM287.922 44.8281H276.484V46.8281H287.922V44.8281ZM277.484 45.8281V34.5312H275.484V45.8281H277.484ZM276.484 35.5312H304.375V33.5312H276.484V35.5312ZM303.375 34.5312V62.5625H305.375V34.5312H303.375ZM381.497 71V72H382.497V71H381.497ZM365.138 71L364.269 71.4949L364.557 72H365.138V71ZM340.951 28.5312L341.82 28.0364L339.951 24.7548V28.5312H340.951ZM340.951 71V72H341.951V71H340.951ZM324.497 71H323.497V72H324.497V71ZM324.497 2.75V1.75H323.497V2.75H324.497ZM340.951 2.75L341.82 2.25583L341.532 1.75H340.951V2.75ZM365.091 45.2188L364.222 45.7129L366.091 49.0015V45.2188H365.091ZM365.091 2.75V1.75H364.091V2.75H365.091ZM381.497 2.75H382.497V1.75H381.497V2.75ZM381.497 70H365.138V72H381.497V70ZM366.007 70.5051L341.82 28.0364L340.082 29.0261L364.269 71.4949L366.007 70.5051ZM339.951 28.5312V71H341.951V28.5312H339.951ZM340.951 70H324.497V72H340.951V70ZM325.497 71V2.75H323.497V71H325.497ZM324.497 3.75H340.951V1.75H324.497V3.75ZM340.081 3.24417L364.222 45.7129L365.961 44.7246L341.82 2.25583L340.081 3.24417ZM366.091 45.2188V2.75H364.091V45.2188H366.091ZM365.091 3.75H381.497V1.75H365.091V3.75ZM380.497 2.75V71H382.497V2.75H380.497ZM459.511 71V72H460.511V71H459.511ZM443.151 71H442.151V72H443.151V71ZM443.151 42.5H444.151V41.5H443.151V42.5ZM418.917 42.5V41.5H417.917V42.5H418.917ZM418.917 71V72H419.917V71H418.917ZM402.464 71H401.464V72H402.464V71ZM402.464 2.75V1.75H401.464V2.75H402.464ZM418.917 2.75H419.917V1.75H418.917V2.75ZM418.917 29.8438H417.917V30.8438H418.917V29.8438ZM443.151 29.8438V30.8438H444.151V29.8438H443.151ZM443.151 2.75V1.75H442.151V2.75H443.151ZM459.511 2.75H460.511V1.75H459.511V2.75ZM459.511 70H443.151V72H459.511V70ZM444.151 71V42.5H442.151V71H444.151ZM443.151 41.5H418.917V43.5H443.151V41.5ZM417.917 42.5V71H419.917V42.5H417.917ZM418.917 70H402.464V72H418.917V70ZM403.464 71V2.75H401.464V71H403.464ZM402.464 3.75H418.917V1.75H402.464V3.75ZM417.917 2.75V29.8438H419.917V2.75H417.917ZM418.917 30.8438H443.151V28.8438H418.917V30.8438ZM444.151 29.8438V2.75H442.151V29.8438H444.151ZM443.151 3.75H459.511V1.75H443.151V3.75ZM458.511 2.75V71H460.511V2.75H458.511ZM534.055 2.75H535.055V1.75H534.055V2.75ZM530.821 60.5938L531.684 61.0985L531.686 61.0954L530.821 60.5938ZM480.289 47.75H479.289L479.289 47.7625L480.289 47.75ZM480.289 2.75V1.75H479.289V2.75H480.289ZM496.836 2.75H497.836V1.75H496.836V2.75ZM496.836 48.0781H495.836V48.0907L495.837 48.1032L496.836 48.0781ZM517.602 2.75V1.75H516.602V2.75H517.602ZM533.055 2.75V47.4219H535.055V2.75H533.055ZM533.055 47.4219C533.055 52.3397 532.009 56.5509 529.956 60.0921L531.686 61.0954C533.945 57.1991 535.055 52.629 535.055 47.4219H533.055ZM529.957 60.089C527.907 63.596 524.967 66.2745 521.106 68.1299L521.973 69.9326C526.175 67.913 529.422 64.9665 531.684 61.0985L529.957 60.089ZM521.106 68.1299C517.238 69.9893 512.626 70.9375 507.243 70.9375V72.9375C512.859 72.9375 517.779 71.9482 521.973 69.9326L521.106 68.1299ZM507.243 70.9375C499.103 70.9375 492.821 68.8293 488.272 64.7262L486.932 66.2113C491.946 70.7332 498.757 72.9375 507.243 72.9375V70.9375ZM488.272 64.7262C483.732 60.6316 481.38 55.009 481.289 47.7375L479.289 47.7625C479.386 55.491 481.909 61.6809 486.932 66.2113L488.272 64.7262ZM481.289 47.75V2.75H479.289V47.75H481.289ZM480.289 3.75H496.836V1.75H480.289V3.75ZM495.836 2.75V48.0781H497.836V2.75H495.836ZM495.837 48.1032C495.934 51.9701 496.883 55.0478 498.846 57.161C500.825 59.2921 503.684 60.2812 507.243 60.2812V58.2812C504.051 58.2812 501.8 57.4032 500.311 55.7999C498.805 54.1788 497.926 51.6549 497.836 48.053L495.837 48.1032ZM507.243 60.2812C510.831 60.2812 513.712 59.2891 515.708 57.1511L514.246 55.7864C512.741 57.3984 510.467 58.2812 507.243 58.2812V60.2812ZM515.708 57.1511C517.713 55.0029 518.602 51.6464 518.602 47.3281H516.602C516.602 51.4474 515.741 54.1846 514.246 55.7864L515.708 57.1511ZM518.602 47.3281V2.75H516.602V47.3281H518.602ZM517.602 3.75H534.055V1.75H517.602V3.75ZM554.927 71H553.927V72H554.927V71ZM554.927 2.75V1.75H553.927V2.75H554.927ZM599.459 7.57812L598.882 8.39525L598.885 8.39709L599.459 7.57812ZM596.74 36.1719L596.388 35.2359L593.452 36.3406L596.485 37.139L596.74 36.1719ZM601.427 65.8906L602.049 66.6743L602.049 66.6737L601.427 65.8906ZM582.631 71V72L582.638 72L582.631 71ZM571.381 41.9844V40.9844H570.381V41.9844H571.381ZM571.381 58.3438H570.381V59.3438H571.381V58.3438ZM589.006 56.3281L589.65 57.0927L589.659 57.0853L589.006 56.3281ZM582.912 41.9844L582.917 40.9844H582.912V41.9844ZM571.381 31.2031H570.381V32.2031H571.381V31.2031ZM579.959 31.2031V32.2032L579.967 32.2031L579.959 31.2031ZM587.459 17.375L586.847 18.166L586.856 18.1732L587.459 17.375ZM571.381 15.4531V14.4531H570.381V15.4531H571.381ZM555.927 71V2.75H553.927V71H555.927ZM554.927 3.75H579.443V1.75H554.927V3.75ZM579.443 3.75C588.127 3.75 594.56 5.34598 598.882 8.39525L600.035 6.761C595.232 3.37277 588.321 1.75 579.443 1.75V3.75ZM598.885 8.39709C603.184 11.4094 605.349 15.7598 605.349 21.5938H607.349C607.349 15.1777 604.921 10.1844 600.033 6.75916L598.885 8.39709ZM605.349 21.5938C605.349 24.9678 604.575 27.7858 603.073 30.0956L604.75 31.1856C606.499 28.4955 607.349 25.2822 607.349 21.5938H605.349ZM603.073 30.0956C601.58 32.3938 599.372 34.1133 596.388 35.2359L597.092 37.1078C600.421 35.8555 602.994 33.8875 604.75 31.1856L603.073 30.0956ZM596.485 37.139C599.864 38.028 602.39 39.6655 604.141 42.0187L605.745 40.825C603.684 38.0533 600.741 36.1907 596.995 35.2048L596.485 37.139ZM604.141 42.0187C605.899 44.3829 606.802 47.2898 606.802 50.7969H608.802C608.802 46.9289 607.799 43.5858 605.745 40.825L604.141 42.0187ZM606.802 50.7969C606.802 57.2575 604.762 61.966 600.806 65.1075L602.049 66.6737C606.593 63.0652 608.802 57.7113 608.802 50.7969H606.802ZM600.806 65.1069C596.835 68.2548 590.827 69.9383 582.623 70L582.638 72C591.059 71.9367 597.583 70.214 602.049 66.6743L600.806 65.1069ZM582.631 70H554.927V72H582.631V70ZM570.381 41.9844V58.3438H572.381V41.9844H570.381ZM571.381 59.3438H582.162V57.3438H571.381V59.3438ZM582.162 59.3438C585.268 59.3438 587.813 58.6417 589.65 57.0926L588.361 55.5636C587.011 56.702 584.993 57.3438 582.162 57.3438V59.3438ZM589.659 57.0853C591.512 55.4868 592.396 53.2665 592.396 50.5625H590.396C590.396 52.796 589.687 54.4194 588.352 55.571L589.659 57.0853ZM592.396 50.5625C592.396 47.5655 591.651 45.1319 589.986 43.4491C588.321 41.7653 585.901 41.0009 582.917 40.9844L582.906 42.9844C585.578 42.9991 587.401 43.68 588.564 44.8556C589.728 46.0321 590.396 47.872 590.396 50.5625H592.396ZM582.912 40.9844H571.381V42.9844H582.912V40.9844ZM571.381 32.2031H579.959V30.2031H571.381V32.2031ZM579.967 32.2031C583.628 32.1713 586.484 31.5106 588.288 30.0013L587.005 28.4674C585.746 29.5207 583.477 30.1725 579.95 30.2032L579.967 32.2031ZM588.288 30.0013C590.102 28.4835 590.943 26.2774 590.943 23.5625H588.943C588.943 25.8476 588.253 27.4228 587.005 28.4674L588.288 30.0013ZM590.943 23.5625C590.943 20.503 590.055 18.082 588.061 16.5768L586.856 18.1732C588.174 19.168 588.943 20.872 588.943 23.5625H590.943ZM588.071 16.584C586.149 15.0976 583.202 14.4531 579.443 14.4531V16.4531C583.059 16.4531 585.456 17.0899 586.847 18.166L588.071 16.584ZM579.443 14.4531H571.381V16.4531H579.443V14.4531ZM570.381 15.4531V31.2031H572.381V15.4531H570.381Z" fill="white"/>
</svg>
