<svg width="14" height="12" viewBox="0 0 14 12" fill="none" xmlns="http://www.w3.org/2000/svg">
<g clip-path="url(#clip0)">
<path d="M5.50134 6.5C5.73722 6.78706 6.03816 7.02459 6.38375 7.19647C6.72934 7.36835 7.1115 7.47056 7.5043 7.49616C7.8971 7.52177 8.29135 7.47018 8.66032 7.34489C9.02929 7.2196 9.36434 7.02353 9.64276 6.77L11.2905 5.27C11.7908 4.79849 12.0676 4.16699 12.0613 3.51149C12.0551 2.856 11.7663 2.22897 11.2571 1.76545C10.7479 1.30193 10.0591 1.03901 9.33902 1.03331C8.61895 1.02762 7.92523 1.2796 7.40727 1.735L6.46255 2.59" stroke="#6D6D72" stroke-linecap="round" stroke-linejoin="round"/>
<path d="M7.69841 5.50001C7.46253 5.21294 7.16159 4.97541 6.816 4.80354C6.47041 4.63166 6.08826 4.52945 5.69546 4.50384C5.30266 4.47823 4.9084 4.52982 4.53944 4.65512C4.17047 4.78041 3.83541 4.97647 3.557 5.23001L1.90922 6.73001C1.40896 7.20151 1.13215 7.83302 1.13841 8.48851C1.14467 9.144 1.43349 9.77103 1.94268 10.2346C2.45186 10.6981 3.14067 10.961 3.86074 10.9667C4.58081 10.9724 5.27453 10.7204 5.79248 10.265L6.73172 9.41001" stroke="#6D6D72" stroke-linecap="round" stroke-linejoin="round"/>
</g>
<defs>
<clipPath id="clip0">
<rect width="13.1822" height="12" fill="white" transform="translate(0.00878906)"/>
</clipPath>
</defs>
</svg>
