<?xml version="1.0" standalone="no"?>
<!DOCTYPE svg PUBLIC "-//W3C//DTD SVG 20010904//EN"
 "http://www.w3.org/TR/2001/REC-SVG-20010904/DTD/svg10.dtd">
<svg version="1.0" xmlns="http://www.w3.org/2000/svg"
 width="848.000000pt" height="848.000000pt" viewBox="0 0 848.000000 848.000000"
 preserveAspectRatio="xMidYMid meet">
<metadata>
Created by potrace 1.11, written by Peter Selinger 2001-2013
</metadata>
<g transform="translate(0.000000,848.000000) scale(0.100000,-0.100000)"
fill="#000000" stroke="none">
<path d="M5343 8221 c-6 -9 -50 -66 -99 -128 -49 -61 -98 -123 -108 -138 -11
-14 -27 -34 -35 -44 -9 -10 -27 -33 -41 -51 -20 -26 -198 -256 -237 -305 -5
-5 -37 -48 -73 -94 -36 -46 -77 -98 -91 -115 -14 -17 -50 -62 -79 -101 -30
-38 -59 -75 -64 -81 -6 -7 -20 -24 -31 -40 -31 -43 -69 -89 -77 -92 -5 -2 -8
-8 -8 -13 0 -6 -9 -20 -21 -32 -11 -12 -30 -35 -42 -50 -12 -16 -42 -54 -67
-86 -25 -32 -56 -73 -70 -91 -14 -18 -45 -59 -70 -90 -25 -31 -55 -70 -67 -86
-12 -16 -31 -40 -42 -54 -11 -14 -41 -52 -68 -86 -26 -33 -60 -76 -75 -95 -96
-121 -126 -164 -120 -173 10 -17 375 -500 387 -512 11 -12 103 -137 120 -163
6 -8 17 -23 25 -32 8 -10 53 -70 100 -133 47 -63 87 -115 90 -115 3 -1 23 22
45 50 22 28 45 56 50 63 8 9 280 350 335 420 8 10 23 27 33 38 9 10 17 22 17
27 0 5 3 11 8 13 4 2 25 26 47 53 22 28 47 58 57 68 10 10 18 21 18 25 0 4 15
24 33 44 17 21 52 63 77 94 25 31 62 78 83 103 20 25 41 51 45 56 76 98 168
212 178 221 8 6 14 15 14 19 0 4 9 17 20 29 11 11 105 129 210 261 l191 239
737 1 c405 0 740 -1 744 -3 8 -3 -64 -106 -94 -133 -10 -9 -18 -21 -18 -27 0
-6 -3 -12 -7 -14 -5 -1 -35 -39 -68 -83 -33 -44 -64 -85 -70 -91 -5 -6 -21
-26 -35 -44 -14 -19 -44 -58 -67 -87 -24 -29 -43 -57 -43 -62 0 -5 -4 -11 -8
-13 -4 -1 -59 -68 -120 -148 -62 -80 -121 -156 -132 -168 -11 -13 -20 -27 -20
-32 0 -5 -3 -10 -8 -12 -4 -1 -45 -52 -92 -113 -46 -60 -87 -111 -92 -113 -4
-2 -8 -10 -8 -17 0 -7 -4 -15 -8 -17 -5 -1 -28 -30 -53 -63 -24 -33 -48 -65
-54 -71 -5 -6 -21 -26 -35 -44 -14 -18 -59 -77 -102 -132 -42 -55 -85 -111
-95 -125 -10 -13 -30 -39 -45 -56 -15 -18 -28 -35 -28 -39 0 -4 -7 -14 -17
-23 -14 -15 -85 -105 -228 -295 -27 -36 -52 -67 -55 -70 -3 -3 -19 -23 -35
-45 -16 -22 -35 -47 -42 -55 -7 -8 -62 -80 -123 -159 -61 -79 -121 -158 -135
-175 -13 -17 -60 -78 -104 -136 -44 -58 -84 -109 -89 -115 -8 -8 46 -90 93
-141 5 -6 17 -22 25 -34 15 -22 58 -79 83 -110 7 -8 35 -44 62 -80 27 -36 53
-66 57 -68 4 -2 8 -9 8 -14 0 -6 7 -18 15 -27 29 -32 50 -58 60 -74 6 -8 44
-59 85 -112 41 -53 80 -104 85 -113 6 -9 16 -22 22 -30 7 -7 39 -48 70 -90 32
-42 60 -79 63 -82 3 -3 25 -32 50 -65 25 -33 47 -62 50 -65 3 -3 61 -79 130
-170 68 -91 156 -206 195 -256 38 -50 80 -104 92 -120 12 -16 63 -83 113 -149
51 -66 102 -133 113 -148 12 -16 41 -53 65 -82 23 -30 42 -58 42 -63 0 -6 4
-12 8 -14 5 -1 38 -41 73 -88 35 -47 72 -94 82 -105 10 -11 25 -32 33 -48 8
-15 18 -27 22 -27 4 0 15 -13 25 -29 10 -17 26 -40 37 -53 56 -67 240 -310
240 -319 0 -5 6 -9 13 -10 6 0 4 -3 -5 -7 -10 -4 -336 -7 -726 -6 -640 0 -711
2 -726 16 -9 9 -16 19 -16 22 0 4 -11 19 -24 34 -73 85 -136 162 -136 168 0 4
-6 12 -14 18 -11 9 -110 129 -241 294 -5 7 -17 21 -26 30 -8 9 -33 40 -55 67
-21 28 -41 52 -44 55 -3 3 -32 39 -64 80 -33 41 -73 91 -90 111 -17 19 -43 51
-58 70 -24 30 -78 96 -172 213 -17 21 -46 55 -63 75 -18 20 -33 39 -33 43 0 4
-10 17 -22 30 -13 13 -50 57 -83 98 -32 41 -64 80 -70 86 -5 6 -23 28 -40 50
-16 21 -43 54 -60 74 -16 21 -43 54 -60 74 -57 72 -94 111 -98 106 -3 -3 -55
-72 -116 -155 -61 -82 -117 -157 -124 -165 -7 -8 -30 -40 -52 -70 -40 -55 -51
-70 -70 -93 -6 -7 -28 -37 -50 -67 -22 -30 -44 -60 -50 -67 -5 -7 -16 -19 -22
-27 -7 -8 -13 -18 -13 -20 0 -6 -24 -37 -47 -61 -7 -8 -13 -18 -13 -23 0 -6
-4 -12 -8 -14 -5 -1 -43 -50 -85 -107 -75 -102 -76 -104 -59 -127 35 -47 140
-182 155 -200 9 -10 52 -66 97 -124 44 -58 86 -112 93 -120 6 -9 25 -33 41
-55 16 -22 37 -47 45 -56 24 -24 51 -59 51 -64 0 -2 82 -109 183 -238 100
-129 193 -249 207 -267 14 -18 30 -38 35 -44 11 -13 122 -158 145 -190 8 -11
27 -34 42 -51 16 -16 28 -33 28 -37 0 -4 6 -13 13 -20 28 -29 127 -157 127
-164 0 -4 6 -12 14 -18 7 -6 60 -72 117 -146 57 -74 114 -146 126 -160 13 -14
23 -29 23 -33 0 -5 7 -16 17 -25 15 -15 135 -17 1585 -17 l1568 0 0 921 0 921
-67 86 c-98 122 -456 586 -468 604 -5 9 -17 24 -25 33 -8 9 -26 31 -40 50 -14
18 -68 88 -120 156 -52 67 -106 136 -120 154 -14 18 -56 74 -95 123 -38 49
-74 96 -80 106 -5 9 -13 18 -16 21 -4 3 -37 46 -75 95 -37 50 -70 92 -74 95
-3 3 -17 21 -30 40 -13 19 -27 37 -30 40 -4 3 -44 55 -90 115 -46 61 -86 112
-90 115 -3 3 -30 39 -62 80 -31 41 -63 84 -72 95 -9 11 -35 45 -58 75 -23 30
-47 58 -52 62 -6 4 -6 11 1 20 5 7 57 76 114 153 57 77 107 145 112 150 44 53
337 449 337 455 0 5 4 10 8 12 5 2 145 185 313 408 167 223 307 407 311 408 5
2 8 8 8 13 0 8 20 35 48 64 6 8 12 18 12 23 0 6 4 12 8 14 7 3 144 181 217
282 17 23 36 49 43 57 7 8 39 50 72 94 l59 80 1 883 0 882 -1564 -2 c-1408 -1
-1564 -3 -1573 -17z"/>
<path d="M18 7018 c9 -16 19 -28 22 -28 4 0 22 -21 40 -47 19 -27 39 -53 45
-60 5 -6 20 -24 32 -40 12 -15 30 -38 40 -50 10 -12 28 -34 40 -50 12 -15 60
-77 107 -136 47 -59 86 -112 86 -117 0 -5 6 -13 13 -17 7 -4 35 -37 62 -73 28
-36 55 -70 60 -76 6 -7 20 -25 32 -40 72 -93 148 -190 153 -194 3 -3 21 -25
40 -50 19 -25 38 -49 42 -55 5 -5 39 -48 75 -95 37 -47 71 -86 75 -88 4 -2 8
-8 8 -13 0 -9 14 -27 55 -75 11 -12 29 -35 40 -50 17 -23 107 -137 255 -324
15 -19 66 -84 113 -145 48 -60 94 -119 104 -130 10 -11 26 -32 35 -46 9 -14
23 -32 30 -40 7 -8 29 -34 48 -59 49 -63 49 -63 68 -86 9 -12 28 -36 42 -54
31 -41 116 -148 139 -175 9 -11 30 -38 46 -60 17 -22 64 -83 105 -135 42 -52
88 -111 103 -131 l27 -36 -31 -39 c-53 -67 -76 -96 -144 -184 -37 -47 -74 -94
-83 -105 -9 -11 -50 -63 -90 -115 -40 -52 -78 -97 -83 -98 -5 -2 -9 -10 -9
-17 0 -7 -4 -15 -8 -17 -5 -1 -33 -34 -63 -73 -29 -38 -58 -75 -64 -82 -17
-20 -29 -35 -77 -98 -25 -33 -54 -70 -64 -82 -11 -12 -28 -34 -39 -49 -21 -29
-66 -85 -75 -94 -3 -3 -18 -23 -35 -45 -16 -22 -34 -45 -40 -52 -5 -7 -15 -18
-20 -25 -22 -28 -80 -104 -87 -113 -4 -5 -18 -22 -30 -37 -51 -59 -58 -69 -58
-77 0 -5 -4 -11 -8 -13 -5 -1 -33 -34 -62 -73 -30 -38 -66 -84 -80 -101 -14
-17 -38 -48 -55 -69 -16 -21 -50 -64 -75 -96 -25 -31 -90 -114 -145 -184 -55
-71 -105 -133 -111 -139 -6 -6 -15 -18 -20 -27 -5 -9 -23 -34 -41 -55 -30 -37
-89 -111 -158 -199 -16 -21 -67 -84 -113 -141 -45 -57 -82 -108 -82 -114 0 -5
-4 -10 -8 -10 -5 0 -22 -19 -39 -42 -17 -24 -43 -56 -57 -73 -14 -16 -23 -31
-21 -34 3 -2 348 -5 768 -5 665 -1 764 1 777 14 8 8 37 44 65 80 54 70 57 75
107 136 18 22 44 56 58 74 25 34 66 85 85 106 5 7 19 24 30 40 11 15 31 42 45
58 14 17 28 36 33 41 4 6 15 20 25 31 9 12 44 57 77 99 33 43 70 89 82 103 13
14 23 28 23 31 0 3 13 20 28 36 15 17 39 46 52 65 13 19 32 42 42 51 10 9 18
19 18 23 0 6 30 43 58 72 6 7 12 17 12 22 0 6 4 12 8 14 4 2 23 23 42 48 19
24 40 50 45 56 6 6 21 26 35 44 14 18 33 42 43 53 9 11 17 23 17 26 0 3 13 20
28 36 15 17 74 91 132 165 58 74 109 140 115 146 5 6 21 26 35 44 14 18 45 58
70 89 25 31 74 94 110 140 36 46 79 100 95 120 17 21 57 73 90 116 33 43 72
92 88 109 15 17 30 39 33 48 3 10 9 18 13 18 4 0 27 27 51 60 24 33 46 60 50
60 3 0 14 13 23 30 10 16 23 35 30 42 7 7 28 33 47 58 19 25 40 52 47 60 55
63 91 115 86 124 -6 9 -123 159 -170 216 -7 8 -35 44 -63 80 -29 36 -64 81
-80 100 -40 49 -81 101 -110 140 -14 18 -30 38 -35 44 -16 17 -57 69 -85 106
-14 18 -99 126 -190 240 -91 114 -177 222 -192 241 -14 19 -92 117 -173 219
-81 102 -157 198 -168 214 -12 15 -32 39 -44 52 -13 12 -23 27 -23 33 0 5 -3
11 -7 13 -5 2 -30 30 -56 63 -65 81 -68 85 -102 130 -16 22 -34 45 -40 51 -5
6 -22 26 -37 45 -159 202 -252 319 -273 342 -14 15 -25 30 -25 33 0 4 -12 21
-27 38 -16 17 -41 49 -58 70 -16 21 -35 44 -40 50 -6 6 -31 38 -55 71 -25 33
-48 62 -51 65 -4 3 -30 34 -57 70 l-50 64 -765 1 -765 0 16 -27z"/>
</g>
</svg>
